<svg version="1.1" id="Layer_1" xmlns="http://www.w3.org/2000/svg" xmlns:xlink="http://www.w3.org/1999/xlink" x="0px" y="0px"
	 width="100%" viewBox="0 0 217 182" enable-background="new 0 0 217 182" xml:space="preserve">
<path fill="#000000" opacity="1.000000" stroke="none" 
	d="
M1.000000,80.000000 
	C1.000000,53.681206 1.000000,27.362411 1.000000,1.021809 
	C73.278854,1.021809 145.557709,1.021809 217.918289,1.021809 
	C217.918289,61.578598 217.918289,122.157341 217.918289,182.868042 
	C145.666809,182.868042 73.333443,182.868042 1.000000,182.868042 
	C1.000000,150.568436 1.000000,118.252876 1.219786,85.476784 
	C1.439571,85.016251 1.875338,85.076210 2.088034,85.419693 
	C4.005083,86.177773 5.704373,86.924019 7.414656,86.950127 
	C15.244622,87.069656 23.078526,87.046219 30.908943,86.932068 
	C32.638382,86.906853 34.359402,86.304054 36.381168,85.787247 
	C38.044159,79.886078 37.386581,79.035385 31.436234,79.009422 
	C23.325485,78.974030 15.213651,78.908348 7.104467,79.017700 
	C5.381651,79.040939 3.668240,79.761597 1.716835,80.097305 
	C1.483174,80.033669 1.000000,80.000000 1.000000,80.000000 
M35.438259,33.152061 
	C35.331913,33.527660 35.225567,33.903255 35.010193,34.469746 
	C35.010193,34.469746 35.031300,34.688560 34.490173,35.067890 
	C34.052402,35.781986 33.614632,36.496082 33.052090,37.474358 
	C33.052090,37.474358 33.038830,37.766220 32.431793,38.187546 
	C31.940248,39.769276 31.448706,41.351006 30.375418,43.457283 
	C29.823404,46.483368 29.356239,49.527966 28.700903,52.531506 
	C27.505646,58.009632 28.675200,59.409451 34.124287,58.942841 
	C39.045971,58.521389 37.722713,54.866192 37.970539,51.117027 
	C38.591175,44.905586 40.317932,39.280781 46.566673,35.778614 
	C46.846748,35.589348 47.014503,35.327950 47.006184,34.991600 
	C47.006184,34.991600 47.017887,35.054337 47.622086,34.776268 
	C49.433655,33.190514 51.245224,31.604761 52.995358,30.001850 
	C52.995358,30.001850 52.992653,30.065588 53.758930,29.968658 
	C56.148598,29.261021 58.538269,28.553381 61.866436,27.976082 
	C89.561996,27.934837 117.257561,27.893593 145.693558,27.984707 
	C147.123001,28.273684 148.552429,28.562660 150.598190,29.168867 
	C152.739548,30.402735 154.880905,31.636602 157.626648,33.209263 
	C162.309525,39.465717 167.362595,45.552570 167.048691,54.963299 
	C167.048691,60.225922 167.048691,65.488548 167.048691,71.654945 
	C169.034988,70.301056 170.057251,69.604271 171.496292,68.771629 
	C171.748383,68.597374 171.913239,68.362015 172.485977,67.881126 
	C172.667725,67.590111 172.849457,67.299095 172.995193,67.008080 
	C172.995193,67.008080 173.028717,67.025322 173.568192,66.795418 
	C174.069107,66.206879 174.570007,65.618340 175.013489,65.013603 
	C175.013489,65.013603 175.025925,65.071976 175.658630,64.727829 
	C175.805374,61.820374 175.952133,58.912922 176.630310,55.644409 
	C176.342575,54.450333 176.054840,53.256260 175.848984,51.467697 
	C175.588501,50.973560 175.328003,50.479424 175.216064,49.336048 
	C174.149689,45.874260 173.083328,42.412476 171.992859,39.001923 
	C171.992859,39.001923 172.049179,38.996174 171.980652,38.296154 
	C170.664841,36.501965 169.349030,34.707771 168.028183,32.979061 
	C168.028183,32.979061 168.093597,32.973251 167.953476,32.295734 
	C166.647949,31.156189 165.342438,30.016645 164.021011,28.940968 
	C164.021011,28.940968 164.086609,28.946341 163.892029,28.463531 
	C163.606354,28.279043 163.320694,28.094557 162.729004,27.311970 
	C160.836655,26.167398 158.944290,25.022827 156.648438,23.285610 
	C153.083878,22.119280 149.519333,20.952950 145.559662,19.132030 
	C143.999588,18.770638 142.440430,18.098846 140.879288,18.094156 
	C115.218452,18.017092 89.554710,17.832092 63.898788,18.187895 
	C59.239017,18.252518 54.611004,20.607178 49.247772,22.006971 
	C47.151653,23.333120 45.055538,24.659269 43.008286,26.008369 
	C43.008286,26.008369 42.999050,25.955177 42.440281,26.181673 
	C41.932907,26.785973 41.425537,27.390274 41.000660,28.013397 
	C41.000660,28.013397 41.019493,27.930899 40.477715,28.107733 
	C40.258915,28.411945 40.040119,28.716158 39.436893,29.145416 
	C39.193264,29.302265 39.053696,29.524473 38.502712,30.062170 
	C38.312847,30.381100 38.122986,30.700029 38.016937,31.016485 
	C38.016937,31.016485 38.014477,30.932669 37.497421,31.113348 
	C37.308186,31.415007 37.118950,31.716667 37.018158,32.018017 
	C37.018158,32.018017 37.017860,31.929573 36.500965,32.110588 
	C36.311268,32.411671 36.121571,32.712753 36.011787,33.004349 
	C36.011787,33.004349 36.002308,32.924435 35.438259,33.152061 
M185.488235,67.862434 
	C185.680466,67.568893 185.872681,67.275360 186.001968,66.988701 
	C186.001968,66.988701 186.024033,67.048050 186.615540,66.777954 
	C187.999435,66.001595 189.383316,65.225235 190.767212,64.448883 
	C190.149002,63.597492 189.530792,62.746105 188.912582,61.894714 
	C186.891663,62.954891 184.870743,64.015068 182.460434,65.207436 
	C182.217667,65.372154 182.077682,65.600014 181.387329,66.053177 
	C180.547058,66.724197 179.706787,67.395218 178.310699,68.328697 
	C177.565460,69.268425 176.820221,70.208160 175.411499,71.061775 
	C174.584076,71.703400 173.756638,72.345024 172.996140,72.993744 
	C172.996140,72.993744 172.996140,72.926445 172.367661,73.209419 
	C170.562103,74.462189 168.756531,75.714958 166.992111,77.002853 
	C166.992111,77.002853 166.981110,76.949928 166.379791,77.202507 
	C165.234375,78.129395 164.088943,79.056282 163.003357,80.005157 
	C163.003357,80.005157 163.011200,79.941887 162.497330,80.120422 
	C162.303909,80.417786 162.110504,80.715141 162.010361,81.005028 
	C162.010361,81.005028 162.002930,80.911743 161.351364,81.015869 
	C160.547577,81.672279 159.743774,82.328682 159.001846,83.005692 
	C159.001846,83.005692 159.011383,82.941170 158.512482,83.136169 
	C158.318588,83.427414 158.124695,83.718651 158.018066,84.020134 
	C158.018066,84.020134 158.028351,83.932884 157.403931,84.007729 
	C156.910797,84.332581 156.417648,84.657433 155.992920,84.989937 
	C155.992920,84.989937 155.996704,84.921196 155.371445,85.016716 
	C154.599396,85.321365 153.827332,85.626015 153.009460,85.150948 
	C150.706543,80.068604 148.403625,74.986259 146.002090,69.288750 
	C145.668869,68.794678 145.335632,68.300598 144.996124,67.270973 
	C144.940170,66.919678 144.884232,66.568390 144.908585,65.437653 
	C143.254272,60.200813 139.875290,57.932796 134.301498,58.941280 
	C132.374710,59.289898 130.322662,59.121468 128.344070,58.972992 
	C123.905777,58.639938 121.465324,60.632404 120.984680,64.994957 
	C120.984680,64.994957 120.971573,64.911163 120.360535,65.273903 
	C119.288551,67.852570 118.216568,70.431236 116.879364,73.575905 
	C116.576248,74.321571 116.273132,75.067245 115.411819,76.274033 
	C114.533165,78.350723 113.753891,80.476677 112.754097,82.493309 
	C110.953468,86.125305 109.020744,89.691795 107.084633,92.552887 
	C106.463722,91.021049 105.842819,89.489212 104.992073,87.237160 
	C102.660881,81.485001 100.329689,75.732841 97.859093,69.298515 
	C97.183655,67.829308 96.508217,66.360100 95.612190,64.530113 
	C95.432343,64.308372 95.224770,64.116653 95.006187,64.014137 
	C95.006187,64.014137 95.057922,63.980885 94.845245,63.270065 
	C92.282310,58.294106 86.143761,57.275597 80.756821,61.587746 
	C76.994232,70.146278 73.231636,78.704803 69.222473,87.824181 
	C67.978004,84.739471 67.013283,82.348190 65.956413,79.189049 
	C64.679092,74.928955 63.715103,70.538231 62.012856,66.455292 
	C60.902355,63.791695 58.719677,61.575104 56.095673,59.094540 
	C53.942074,59.059620 51.788551,59.001713 49.634857,58.994167 
	C43.617367,58.973091 42.315201,60.324471 44.237995,66.053001 
	C49.970356,83.131279 56.011288,100.105995 62.451439,117.685509 
	C70.661400,121.312065 74.125031,119.467293 76.931976,109.556618 
	C76.976707,109.394867 77.021446,109.233109 77.550758,108.571793 
	C78.365891,106.380363 79.181030,104.188934 80.408791,101.439575 
	C82.502251,97.048752 84.595711,92.657921 87.064682,87.479500 
	C88.016861,89.514961 88.602081,90.643219 89.083229,91.814247 
	C92.406693,99.903053 95.708466,108.000778 99.147003,116.567192 
	C99.147003,116.567192 99.280388,117.040268 99.136253,117.793640 
	C100.911850,124.960434 103.074577,125.994179 108.723907,121.939301 
	C110.226227,121.654015 111.728554,121.368729 113.117989,121.763275 
	C113.100113,122.452103 113.082230,123.140930 112.452927,124.278160 
	C111.959572,126.023468 111.466217,127.768768 110.972855,129.514069 
	C111.407074,129.871780 111.841286,130.229507 112.275505,130.587219 
	C115.577362,128.040970 118.879219,125.494713 122.484772,122.930550 
	C122.484772,122.930550 122.757095,122.794914 123.306145,122.772079 
	C123.553131,122.522820 123.800110,122.273552 124.654251,121.771927 
	C126.124924,120.523788 127.595604,119.275642 129.006607,118.011780 
	C129.006607,118.011780 129.011490,118.073288 129.678024,117.987556 
	C130.814590,117.001541 131.951157,116.015518 133.013702,115.024078 
	C133.013702,115.024078 133.008316,115.098099 133.724304,114.983727 
	C135.828598,113.465569 138.097122,112.126434 139.995941,110.384323 
	C142.416962,108.163116 144.601425,107.355942 147.045471,110.545364 
	C147.045471,110.545364 147.169571,110.890587 147.091690,111.657951 
	C149.304108,113.842522 147.302292,119.500755 153.913895,118.955536 
	C158.242355,118.985962 162.570801,119.016388 166.979401,119.873238 
	C167.039261,121.254555 167.099136,122.635872 166.819382,124.669167 
	C165.863663,127.077988 164.907959,129.486816 163.439911,132.249405 
	C162.949814,133.156265 162.459702,134.063141 161.390244,135.256897 
	C160.566574,136.493561 159.742920,137.730209 158.983536,138.981537 
	C158.983536,138.981537 158.988174,138.915741 158.396866,139.195480 
	C157.244400,140.125153 156.091934,141.054825 154.996750,141.997025 
	C154.996750,141.997025 154.980774,141.940613 154.299423,142.048523 
	C153.195374,142.994354 152.091324,143.940186 150.297348,145.006348 
	C148.858002,145.732010 147.418655,146.457672 145.262772,147.067642 
	C144.539124,147.023392 143.815475,146.979141 142.510483,146.300369 
	C121.281281,146.288757 100.052078,146.277130 77.967987,146.145584 
	C75.480354,146.019592 72.663063,146.607971 70.564255,145.639420 
	C62.966526,142.133224 56.279213,143.896271 49.726189,148.109283 
	C48.913376,148.631851 47.899307,148.841385 46.489292,149.193146 
	C46.183487,149.366318 45.999573,149.625885 46.000248,150.009033 
	C46.000248,150.009033 46.037472,149.946365 45.513660,150.146942 
	C45.267799,150.424896 45.021938,150.702850 44.473938,151.001755 
	C44.473938,151.001755 44.198280,151.127243 43.366219,151.023438 
	C42.517429,149.657562 41.668640,148.291702 40.955215,146.116989 
	C41.621590,143.358383 42.287960,140.599777 43.659592,137.602539 
	C45.631809,134.003159 44.904205,131.203384 42.521587,127.665756 
	C40.088657,124.053452 38.589836,119.322723 38.182220,114.942032 
	C37.436104,106.923454 36.046875,105.670242 27.371002,109.047768 
	C28.558165,114.716095 29.240049,120.761261 31.176460,126.373573 
	C32.857754,131.246490 34.780159,135.803299 33.042545,141.846191 
	C32.999191,143.541901 32.955841,145.237610 32.977383,146.967834 
	C32.977383,146.967834 33.011524,146.902740 32.550594,147.087402 
	C32.216709,147.279266 32.092575,147.562851 32.008991,148.671829 
	C31.646364,150.101318 31.283735,151.530807 30.336664,153.381912 
	C30.208158,154.568634 30.079653,155.755371 29.375847,157.418961 
	C28.771461,159.275116 27.982420,161.096649 27.625805,162.999237 
	C27.376499,164.329315 27.209621,166.255493 27.941656,167.023285 
	C28.653906,167.770325 30.730253,167.837387 31.900911,167.393723 
	C34.134449,166.547226 36.149834,165.125122 38.537285,163.923523 
	C38.537285,163.923523 38.799202,163.818726 39.400311,163.805252 
	C39.675110,163.523972 39.949913,163.242691 40.492233,162.924088 
	C40.492233,162.924088 40.731525,162.798782 41.428787,162.862839 
	C42.315914,162.251984 43.203041,161.641129 44.011482,161.010712 
	C44.011482,161.010712 43.991940,161.089401 44.687511,160.992126 
	C45.874241,160.317734 47.060966,159.643326 48.539192,158.944748 
	C48.539192,158.944748 48.811043,158.836792 49.578236,158.916702 
	C54.711479,157.235153 59.844723,155.553619 65.800758,153.988190 
	C69.537415,154.602249 73.274078,155.216309 77.764183,156.236603 
	C78.364426,156.477753 78.964249,156.928467 79.564957,156.929657 
	C98.140106,156.966431 116.715401,156.974792 135.290405,156.911057 
	C136.183090,156.908005 137.073380,156.209442 138.866516,155.980469 
	C146.291061,156.317352 153.283600,155.190063 159.053268,150.010925 
	C159.053268,150.010925 159.066345,150.007172 159.449448,149.927399 
	C159.449448,149.927399 159.808136,149.770935 160.417053,149.742752 
	C160.955948,149.165207 161.494843,148.587662 161.992920,147.985321 
	C161.992920,147.985321 162.000153,148.032501 162.501511,147.868286 
	C162.685684,147.578812 162.869873,147.289352 162.995270,147.005264 
	C162.995270,147.005264 163.025360,147.056046 163.589478,146.825623 
	C164.286209,146.092056 164.982941,145.358490 166.099335,144.273880 
	C166.601624,143.744125 167.103912,143.214371 168.117523,142.242325 
	C169.095505,140.507324 170.073471,138.772308 171.587677,136.667999 
	C171.859360,135.844055 172.131042,135.020126 172.339401,134.070602 
	C172.339401,134.070602 172.213791,134.133881 172.781433,133.721207 
	C173.463104,130.810303 174.144775,127.899406 175.233261,124.239899 
	C175.457275,123.470100 175.872009,122.701416 175.876495,121.930336 
	C175.937576,111.448280 175.963867,100.965797 175.924210,90.483711 
	C175.920456,89.490776 175.415222,88.499725 174.860886,86.481270 
	C173.106522,88.468697 172.006775,89.714554 170.974365,90.980202 
	C170.974365,90.980202 170.993271,90.912605 170.442810,91.162300 
	C169.937210,91.771545 169.431595,92.380798 168.994751,92.986916 
	C168.994751,92.986916 168.987686,92.918457 168.312332,93.016479 
	C167.845886,93.673988 167.379440,94.331490 166.975632,94.987160 
	C166.975632,94.987160 166.955521,94.927826 166.499207,95.132973 
	C166.675278,95.501747 166.851349,95.870529 167.041962,96.539993 
	C167.041962,96.539993 167.141830,96.823997 167.011459,97.707527 
	C166.650497,102.123573 166.289536,106.539612 165.287354,110.735542 
	C163.143768,107.160858 161.000183,103.586166 158.968033,99.338516 
	C158.670792,98.551964 158.373566,97.765419 158.030075,96.279488 
	C159.017929,95.465408 160.005783,94.651337 161.505569,93.824753 
	C161.694702,93.551651 161.883835,93.278549 162.007538,93.009430 
	C162.007538,93.009430 162.022354,93.073273 162.604355,92.800110 
	C162.761856,92.188858 162.919342,91.577606 162.974350,91.022972 
	C162.974350,91.022972 163.030930,91.125465 163.739594,90.993111 
	C169.191330,85.335518 174.643066,79.677925 180.010254,73.999527 
	C180.010254,73.999527 179.989487,74.084076 180.507019,73.896957 
	C180.697449,73.593842 180.887894,73.290726 181.005753,73.003593 
	C181.005753,73.003593 181.021774,73.076149 181.618561,72.774147 
	C182.435272,71.519974 183.251984,70.265808 184.001404,68.998909 
	C184.001404,68.998909 183.993073,69.066887 184.491608,68.869690 
	C184.679764,68.575150 184.867935,68.280602 184.984634,67.991219 
	C184.984634,67.991219 184.989761,68.062675 185.488235,67.862434 
M197.030136,60.704506 
	C197.957520,61.877922 198.884903,63.051338 199.812286,64.224754 
	C200.313339,64.171516 200.814377,64.118271 201.315430,64.065033 
	C201.562988,62.667362 201.810547,61.269688 202.282074,59.291126 
	C202.921875,58.081326 203.656357,56.911171 204.182816,55.653904 
	C205.486084,52.541374 206.694183,49.388985 208.584366,45.715874 
	C208.736176,44.312443 208.887985,42.909012 209.222748,39.814251 
	C204.691437,41.482845 201.221588,42.760563 197.511948,44.044415 
	C197.511948,44.044415 197.303223,44.162655 196.526047,44.177269 
	C194.276291,45.138107 192.026535,46.098946 189.466385,47.063072 
	C189.466385,47.063072 189.181702,47.186871 188.426620,47.104401 
	C187.000732,48.032600 185.574844,48.960800 184.148956,49.888992 
	C185.076279,50.626518 186.003586,51.364044 187.339279,52.685066 
	C188.796570,53.303085 190.253845,53.921104 191.694046,54.531879 
	C190.388809,60.160095 190.909851,60.694221 196.995255,60.004875 
	C196.995255,60.004875 196.935577,60.011822 197.030136,60.704506 
M13.061623,96.655128 
	C14.203361,98.022461 15.266476,100.469772 16.501209,100.559662 
	C20.614780,100.859138 24.789928,100.312820 29.424816,100.717567 
	C31.064060,100.794090 32.896572,101.360245 34.288712,100.810738 
	C35.707951,100.250542 37.565796,98.643517 37.637146,97.403099 
	C37.716438,96.024742 36.241840,93.580879 35.015198,93.264977 
	C28.054874,91.472427 21.024664,91.470718 14.031627,94.476257 
	C14.031627,94.476257 13.941674,94.913094 13.514307,95.086342 
	C13.207771,95.268723 13.094810,95.533630 13.061623,96.655128 
M36.274323,72.044884 
	C38.485542,67.525604 37.749950,65.278297 33.655380,65.105492 
	C27.857386,64.860802 22.021431,64.763924 16.247849,65.206253 
	C14.751801,65.320869 13.427628,67.678902 12.024508,69.006454 
	C13.418893,70.335381 14.763716,72.740990 16.216194,72.807846 
	C22.691105,73.105896 29.196787,72.735512 36.274323,72.044884 
z"/>
<path fill="#359B5B" opacity="1.000000" stroke="none" 
	d="
M1.875338,85.076210 
	C1.875338,85.076210 1.439571,85.016251 1.219786,85.008125 
	C1.000000,84.555557 1.000000,84.111107 1.144847,83.068016 
	C1.509962,81.699890 1.730230,80.930420 1.950497,80.160942 
	C3.668240,79.761597 5.381651,79.040939 7.104467,79.017700 
	C15.213651,78.908348 23.325485,78.974030 31.436234,79.009422 
	C37.386581,79.035385 38.044159,79.886078 36.349083,85.436760 
	C35.984470,84.797340 35.948807,84.328445 35.807014,83.566727 
	C34.468578,82.208496 33.236267,81.143089 31.638840,80.105515 
	C23.716919,80.100937 16.158941,79.980125 8.603890,80.080177 
	C5.633371,80.119522 2.751846,80.731934 3.531660,84.979233 
	C2.758460,85.022049 2.316899,85.049126 1.875338,85.076210 
z"/>
<path fill="#28B04E" opacity="1.000000" stroke="none" 
	d="
M1.716836,80.097305 
	C1.730230,80.930420 1.509962,81.699890 1.144847,82.734680 
	C1.000000,82.250000 1.000000,81.500000 1.000000,80.375000 
	C1.000000,80.000000 1.483174,80.033669 1.716836,80.097305 
z"/>
<path fill="#172333" opacity="1.000000" stroke="none" 
	d="
M95.832771,64.890892 
	C96.508217,66.360100 97.183655,67.829308 97.866463,69.974274 
	C100.323189,76.419144 102.772545,82.188255 105.221909,87.957375 
	C105.842819,89.489212 106.463722,91.021049 107.266899,93.274712 
	C107.658966,94.468422 107.868767,94.940308 107.904823,95.711807 
	C107.534363,96.669922 107.337654,97.328415 107.066994,98.171753 
	C106.993042,98.356598 106.937340,98.750862 106.758072,98.992073 
	C106.398743,99.795494 106.218697,100.357704 105.987015,101.069672 
	C105.935379,101.219437 105.947174,101.536049 105.764526,101.723618 
	C105.442322,102.224113 105.302765,102.537056 105.070908,103.090317 
	C104.944199,103.498779 104.909775,103.666916 104.645996,104.097443 
	C102.616837,108.271767 100.817024,112.183701 99.017212,116.095634 
	C95.708466,108.000778 92.406693,99.903053 89.083229,91.814247 
	C88.602081,90.643219 88.016861,89.514961 87.064682,87.479500 
	C84.595711,92.657921 82.502251,97.048752 79.930267,101.645615 
	C73.837234,102.665794 75.513519,105.889000 77.066177,109.071358 
	C77.021446,109.233109 76.976707,109.394867 76.573883,109.935730 
	C75.484726,110.956085 74.488754,111.458344 74.067123,112.261940 
	C71.904877,116.382957 68.595764,117.611336 64.189644,116.658234 
	C63.502522,116.509605 62.687538,116.952049 61.931679,117.121170 
	C56.011288,100.105995 49.970356,83.131279 44.237995,66.053001 
	C42.315201,60.324471 43.617367,58.973091 49.634857,58.994167 
	C51.788551,59.001713 53.942074,59.059620 56.621342,59.474472 
	C58.942184,65.243805 60.594036,70.688042 62.622269,75.988251 
	C63.209721,77.523384 64.876556,78.645477 66.048569,79.956917 
	C67.013283,82.348190 67.978004,84.739471 69.222473,87.824181 
	C73.231636,78.704803 76.994232,70.146278 81.363205,61.288605 
	C86.762466,60.104778 91.306808,60.307522 95.057922,63.980885 
	C95.057922,63.980885 95.006187,64.014137 95.136360,64.143677 
	C95.450256,64.483727 95.639000,64.689613 95.832771,64.890892 
z"/>
<path fill="#28B24F" opacity="1.000000" stroke="none" 
	d="
M160.993652,93.837265 
	C160.005783,94.651337 159.017929,95.465408 157.703735,96.707565 
	C152.948349,100.087204 148.519287,103.038773 143.753723,106.105225 
	C139.947586,109.179443 136.477951,112.138771 133.008316,115.098099 
	C133.008316,115.098099 133.013702,115.024078 132.708588,115.078583 
	C131.272827,116.113159 130.142151,117.093224 129.011490,118.073288 
	C129.011490,118.073288 129.006607,118.011780 128.674713,118.050392 
	C126.529770,119.368462 124.716736,120.647926 122.865677,122.144028 
	C122.827652,122.360680 122.757095,122.794914 122.757095,122.794914 
	C122.757095,122.794914 122.484772,122.930550 121.945587,122.986465 
	C118.625717,123.304848 115.845032,123.567307 113.064346,123.829758 
	C113.082230,123.140930 113.100113,122.452103 113.382248,121.404678 
	C113.646500,121.046089 114.059166,120.985992 114.302483,120.789436 
	C115.007034,119.658104 115.468277,118.723328 116.022522,117.448860 
	C116.744812,115.080742 117.374107,113.052315 118.014252,111.018021 
	C118.025101,111.012169 118.016594,110.989021 118.192352,110.768051 
	C118.585770,110.028267 118.803444,109.509445 119.059372,108.754913 
	C119.097633,108.519188 119.153793,108.044899 119.339195,107.852196 
	C119.755661,107.384735 119.986717,107.109985 120.348969,106.717621 
	C120.651123,106.436707 120.814217,106.265892 121.005295,106.077896 
	C121.041138,106.068222 121.111046,106.043236 121.484573,105.984604 
	C126.215294,103.567757 130.572495,101.209534 135.093048,98.553284 
	C137.806778,96.527367 140.357132,94.799469 143.249695,92.967056 
	C146.730316,90.918724 149.868744,88.974892 153.246765,87.029053 
	C154.323135,86.325089 155.159927,85.623146 155.996704,84.921204 
	C155.996704,84.921196 155.992920,84.989937 156.244858,84.906082 
	C157.007309,84.525780 157.517838,84.229332 158.028351,83.932884 
	C158.028351,83.932884 158.018066,84.020134 158.175064,83.858459 
	C158.558502,83.444923 158.784943,83.193047 159.011383,82.941170 
	C159.011383,82.941170 159.001846,83.005692 159.286636,82.931595 
	C160.381927,82.208908 161.192429,81.560326 162.002930,80.911743 
	C162.002930,80.911743 162.010361,81.005028 162.167816,80.853088 
	C162.553909,80.448067 162.782562,80.194977 163.011200,79.941887 
	C163.011200,79.941887 163.003357,80.005157 163.314362,79.945801 
	C164.743958,78.907608 165.862534,77.928772 166.981110,76.949936 
	C166.981110,76.949928 166.992111,77.002853 167.333923,76.962021 
	C169.449203,75.589615 171.222672,74.258034 172.996140,72.926453 
	C172.996140,72.926445 172.996140,72.993744 173.271973,72.931992 
	C174.390213,72.296127 175.232605,71.722015 176.074982,71.147896 
	C176.820221,70.208160 177.565460,69.268425 178.919205,68.126099 
	C180.365295,67.246010 181.202896,66.568512 182.040482,65.891022 
	C182.077682,65.600014 182.217667,65.372154 182.975586,65.213745 
	C184.335159,65.829391 185.179596,66.438721 186.024033,67.048050 
	C186.024033,67.048050 186.001968,66.988701 185.835846,67.146721 
	C185.443069,67.557388 185.216415,67.810028 184.989761,68.062668 
	C184.989761,68.062675 184.984634,67.991219 184.828873,68.154716 
	C184.446426,68.567772 184.219742,68.817322 183.993073,69.066879 
	C183.993073,69.066887 184.001404,68.998909 183.724350,69.136780 
	C182.638794,70.541817 181.830276,71.808983 181.021774,73.076149 
	C181.021774,73.076149 181.005753,73.003593 180.844086,73.162033 
	C180.451431,73.575005 180.220459,73.829544 179.989487,74.084076 
	C179.989487,74.084076 180.010254,73.999527 179.724640,74.116501 
	C173.969650,79.864143 168.500290,85.494804 163.030930,91.125465 
	C163.030930,91.125465 162.974350,91.022972 162.860992,91.240173 
	C162.505859,91.996002 162.264114,92.534637 162.022354,93.073273 
	C162.022354,93.073273 162.007538,93.009430 161.849304,93.131554 
	C161.445175,93.432167 161.212708,93.626694 160.993652,93.837265 
z"/>
<path fill="#33BC4E" opacity="1.000000" stroke="none" 
	d="
M33.038830,37.766220 
	C33.038830,37.766220 33.052090,37.474358 33.368938,37.144737 
	C34.134293,36.106262 34.582798,35.397411 35.031303,34.688560 
	C35.031300,34.688560 35.010193,34.469746 35.231033,34.158218 
	C35.635353,33.539272 35.818832,33.231853 36.002308,32.924435 
	C36.002308,32.924435 36.011787,33.004349 36.170269,32.846481 
	C36.558453,32.435596 36.788155,32.182583 37.017860,31.929573 
	C37.017860,31.929573 37.018158,32.018017 37.172310,31.855225 
	C37.555801,31.439178 37.785137,31.185925 38.014477,30.932669 
	C38.014477,30.932669 38.016937,31.016485 38.177738,30.837444 
	C38.565086,30.376280 38.791634,30.094160 39.018181,29.812038 
	C39.053696,29.524473 39.193264,29.302265 39.844917,28.918442 
	C40.508457,28.437946 40.763973,28.184422 41.019493,27.930899 
	C41.019493,27.930899 41.000660,28.013397 41.233444,27.878061 
	C41.977165,27.146875 42.488110,26.551027 42.999050,25.955177 
	C42.999050,25.955177 43.008286,26.008369 43.344513,25.973272 
	C45.791813,24.912552 47.902878,23.886929 50.369339,22.754833 
	C54.573204,21.760542 58.405914,20.199221 62.273052,20.108725 
	C74.851608,19.814371 87.442757,20.057962 99.839493,20.354332 
	C98.442490,22.370998 97.235062,24.127832 95.556778,25.906807 
	C88.969009,25.944374 82.848495,25.835245 76.736328,26.013151 
	C71.489342,26.165871 66.251907,26.646706 61.000233,26.983315 
	C60.990215,26.984184 60.970329,26.987240 60.579750,26.998096 
	C57.790333,28.027834 55.391491,29.046711 52.992653,30.065588 
	C52.992653,30.065588 52.995358,30.001850 52.640213,30.026890 
	C49.096951,30.211195 47.127884,31.654034 47.017887,35.054337 
	C47.017887,35.054337 47.006184,34.991600 46.876762,35.130951 
	C46.527374,35.445702 46.309109,35.623196 46.092548,35.802784 
	C40.317932,39.280781 38.591175,44.905586 37.645798,51.750484 
	C37.024666,52.771820 36.796932,53.252831 36.419643,53.530960 
	C35.017509,54.564556 33.566177,55.531418 32.133320,56.523335 
	C31.551298,54.836311 30.581213,53.172050 30.480587,51.456787 
	C30.338928,49.042126 30.841928,46.589645 31.310017,43.870583 
	C32.046787,41.647293 32.542809,39.706757 33.038830,37.766220 
z"/>
<path fill="#0F9A4B" opacity="1.000000" stroke="none" 
	d="
M48.811043,158.836792 
	C48.811043,158.836792 48.539192,158.944748 48.027695,158.980469 
	C46.341442,159.707260 45.166687,160.398331 43.991936,161.089386 
	C43.991940,161.089401 44.011482,161.010712 43.729080,161.064301 
	C42.541630,161.678177 41.636578,162.238480 40.731525,162.798782 
	C40.731525,162.798782 40.492233,162.924088 40.110062,163.067322 
	C39.418331,163.413284 39.108768,163.615997 38.799202,163.818726 
	C38.799202,163.818726 38.537285,163.923523 38.062454,163.899185 
	C29.614109,164.950577 29.614109,164.950577 29.951145,156.942093 
	C30.079653,155.755371 30.208158,154.568634 31.073074,153.177155 
	C33.883659,152.978821 35.957832,152.985245 38.327621,153.120178 
	C40.481586,152.541534 42.339931,151.834381 44.198280,151.127228 
	C44.198280,151.127243 44.473938,151.001755 44.830826,150.814377 
	C45.470970,150.400131 45.754223,150.173248 46.037476,149.946365 
	C46.037472,149.946365 46.000248,150.009033 46.231766,150.004364 
	C46.638500,150.002472 46.813717,150.005280 47.376087,149.976776 
	C49.809902,149.294724 52.054806,148.983261 53.864067,147.926178 
	C58.331818,145.315826 62.678734,144.918091 67.689407,146.502975 
	C71.241173,147.626389 75.207687,147.438553 78.989288,147.878296 
	C78.989517,147.920547 78.985626,148.004990 78.986496,148.441345 
	C79.019386,150.911957 79.051392,152.946198 78.816101,155.065155 
	C78.036110,155.376709 77.523422,155.603546 77.010735,155.830368 
	C73.274078,155.216309 69.537415,154.602249 65.170639,153.667847 
	C60.066841,151.476898 53.073257,153.917526 48.811043,158.836792 
z"/>
<path fill="#18A14E" opacity="1.000000" stroke="none" 
	d="
M144.828278,66.217094 
	C144.884232,66.568390 144.940170,66.919678 144.859131,67.808182 
	C144.490219,68.902016 144.258270,69.458649 143.700348,70.176842 
	C139.572968,71.562737 135.771561,72.787079 131.734985,74.009941 
	C131.499786,74.008461 131.029404,74.003700 130.860107,73.829712 
	C130.461533,73.427025 130.224136,73.207085 129.635880,72.874275 
	C127.859016,72.501915 126.424873,72.251183 124.986572,71.580513 
	C124.648628,68.429840 124.314842,65.699104 124.183952,62.751587 
	C131.901123,58.412136 136.636444,59.265148 144.828278,66.217094 
z"/>
<path fill="#24AE4B" opacity="1.000000" stroke="none" 
	d="
M145.954773,19.786619 
	C149.519333,20.952950 153.083878,22.119280 156.720413,23.873383 
	C154.522217,25.924650 152.252045,27.388145 149.981873,28.851639 
	C148.552429,28.562660 147.123001,28.273684 145.302979,27.720871 
	C144.912415,27.457037 144.866455,27.062246 144.505157,26.890976 
	C136.100357,26.444641 128.056854,26.169577 120.077377,25.563427 
	C121.098732,23.517492 122.056061,21.802643 123.480774,20.066551 
	C131.283707,19.959080 138.619232,19.872849 145.954773,19.786619 
z"/>
<path fill="#19AA4B" opacity="1.000000" stroke="none" 
	d="
M175.067520,49.985287 
	C175.328003,50.479424 175.588501,50.973560 175.537354,51.943016 
	C172.845779,53.612606 170.465820,54.806877 167.989853,55.747002 
	C167.653000,55.009281 167.412170,54.525707 167.171341,54.042137 
	C167.362595,45.552570 162.309525,39.465717 157.507111,32.778606 
	C159.256668,31.232327 161.125778,30.116703 163.268127,28.993523 
	C163.723099,28.972755 163.904861,28.959549 164.086609,28.946341 
	C164.086609,28.946341 164.021011,28.940968 164.095001,29.259857 
	C165.477188,30.710249 166.785385,31.841751 168.093597,32.973251 
	C168.093597,32.973251 168.028183,32.979061 168.050751,33.318661 
	C169.398621,35.437565 170.723907,37.216869 172.049179,38.996170 
	C172.049179,38.996174 171.992859,39.001923 171.997360,39.393799 
	C173.023743,43.185543 174.045624,46.585415 175.067520,49.985287 
z"/>
<path fill="#2BB350" opacity="1.000000" stroke="none" 
	d="
M158.856598,100.011490 
	C161.000183,103.586166 163.143768,107.160858 165.869324,110.870255 
	C166.625793,111.019127 166.800323,111.033302 166.908737,111.361313 
	C166.591888,112.712379 166.341156,113.749603 165.812759,115.046371 
	C161.360992,116.187149 157.186874,117.068390 152.739594,117.754120 
	C151.279099,115.371979 150.091751,113.185341 149.199707,110.830109 
	C150.518478,109.245209 151.426392,107.724487 152.591064,106.435829 
	C154.595306,104.218231 156.759521,102.145195 158.856598,100.011490 
z"/>
<path fill="#53AD66" opacity="1.000000" stroke="none" 
	d="
M145.757217,19.459324 
	C138.619232,19.872849 131.283707,19.959080 123.011749,20.037235 
	C114.726570,20.050941 107.377815,20.072720 100.029060,20.094498 
	C87.442757,20.057962 74.851608,19.814371 62.273052,20.108725 
	C58.405914,20.199221 54.573204,21.760542 50.358368,22.516277 
	C49.992012,22.384190 49.968330,21.904655 49.968330,21.904655 
	C54.611004,20.607178 59.239017,18.252518 63.898788,18.187895 
	C89.554710,17.832092 115.218452,18.017092 140.879288,18.094156 
	C142.440430,18.098846 143.999588,18.770638 145.757217,19.459324 
z"/>
<path fill="#24AF52" opacity="1.000000" stroke="none" 
	d="
M197.303223,44.162651 
	C197.303223,44.162655 197.511948,44.044415 198.043793,44.015957 
	C200.043228,43.701752 201.606308,43.646156 202.959534,43.084721 
	C206.281067,41.706642 207.503769,43.277275 207.940521,46.252609 
	C206.694183,49.388985 205.486084,52.541374 204.182816,55.653904 
	C203.656357,56.911171 202.921875,58.081326 201.961212,59.742897 
	C200.072098,60.133717 198.503830,60.072769 196.935577,60.011822 
	C196.935577,60.011822 196.995255,60.004875 196.994934,59.687668 
	C196.997925,58.909191 197.001221,58.447926 197.306839,57.841888 
	C199.043930,57.026714 200.478699,56.356308 201.913483,55.685905 
	C201.736557,55.194305 201.559631,54.702705 201.382706,54.211102 
	C199.564911,54.485958 197.747116,54.760815 195.770020,54.740089 
	C194.074509,49.781628 189.872513,52.108768 186.891678,50.885246 
	C187.629578,49.486717 188.405640,48.336796 189.181702,47.186874 
	C189.181702,47.186871 189.466385,47.063072 190.029755,47.058586 
	C192.829819,46.090286 195.066513,45.126469 197.303223,44.162651 
z"/>
<path fill="#1DA64C" opacity="1.000000" stroke="none" 
	d="
M166.090408,114.786835 
	C166.341156,113.749603 166.591888,112.712379 166.961456,110.980484 
	C167.377762,108.538658 167.675247,106.791504 168.322388,104.980576 
	C170.432358,104.290688 172.192673,103.664566 173.965118,103.504486 
	C173.971268,110.981674 173.965286,117.992821 173.577438,124.977905 
	C171.183380,124.640289 169.171188,124.328735 167.159012,124.017189 
	C167.099136,122.635872 167.039261,121.254555 166.994720,119.177414 
	C166.703491,117.250008 166.396957,116.018425 166.090408,114.786835 
z"/>
<path fill="#27AE4E" opacity="1.000000" stroke="none" 
	d="
M13.941674,94.913094 
	C13.941674,94.913094 14.031627,94.476257 14.554919,94.251495 
	C19.507812,94.010773 23.965315,93.693909 28.355684,94.101021 
	C30.680801,94.316620 32.889217,95.790741 35.150314,96.696701 
	C33.080704,97.828018 31.011089,98.959343 28.941475,100.090660 
	C24.789928,100.312820 20.614780,100.859138 16.501209,100.559662 
	C15.266476,100.469772 14.203361,98.022461 13.252251,96.112396 
	C13.619802,95.358902 13.786068,95.140053 13.941674,94.913094 
z"/>
<path fill="#3EA25D" opacity="1.000000" stroke="none" 
	d="
M33.160721,141.006332 
	C34.780159,135.803299 32.857754,131.246490 31.176460,126.373573 
	C29.240049,120.761261 28.558165,114.716095 27.371002,109.047768 
	C36.046875,105.670242 37.436104,106.923454 38.182220,114.942032 
	C38.589836,119.322723 40.088657,124.053452 42.521587,127.665756 
	C44.904205,131.203384 45.631809,134.003159 43.312401,137.324097 
	C42.675339,135.014618 42.385475,132.983582 41.939667,130.646301 
	C40.177105,126.907768 38.570484,123.475479 36.892197,119.648911 
	C36.465458,117.148994 36.415432,114.922630 35.646820,112.980675 
	C35.144142,111.710640 33.600101,110.852768 32.522499,109.810287 
	C31.761402,110.947884 30.448931,112.043289 30.357986,113.232155 
	C30.187012,115.467163 30.721399,117.756142 31.062698,120.374130 
	C32.729313,124.171318 34.295727,127.617050 35.868637,131.476517 
	C34.970329,134.928955 34.065525,137.967636 33.160721,141.006332 
z"/>
<path fill="#1D8757" opacity="1.000000" stroke="none" 
	d="
M119.153793,108.044891 
	C119.153793,108.044899 119.097633,108.519188 118.902039,108.988235 
	C118.476501,109.967865 118.246544,110.478439 118.016586,110.989021 
	C118.016594,110.989021 118.025101,111.012169 117.672409,111.117386 
	C111.865372,113.818588 106.411034,116.414581 100.782578,118.819321 
	C100.165764,118.098801 99.723076,117.569534 99.280388,117.040268 
	C99.280388,117.040268 99.147003,116.567192 99.082108,116.331413 
	C100.817024,112.183701 102.616837,108.271767 104.777161,104.427078 
	C107.071114,110.823349 111.583076,106.948845 115.342529,107.099472 
	C116.774643,107.473007 117.964218,107.758949 119.153793,108.044891 
z"/>
<path fill="#399B62" opacity="1.000000" stroke="none" 
	d="
M77.387459,156.033478 
	C77.523422,155.603546 78.036110,155.376709 79.275131,155.075226 
	C90.688057,154.957657 101.374649,154.914703 112.521805,154.895508 
	C118.636574,154.681839 124.290764,154.444443 130.389130,154.219727 
	C133.189178,154.318466 135.545074,154.404510 137.915070,154.709061 
	C137.945496,155.229782 137.957367,155.532181 137.964767,155.834763 
	C137.073380,156.209442 136.183090,156.908005 135.290405,156.911057 
	C116.715401,156.974792 98.140106,156.966431 79.564957,156.929657 
	C78.964249,156.928467 78.364426,156.477753 77.387459,156.033478 
z"/>
<path fill="#3F9458" opacity="1.000000" stroke="none" 
	d="
M78.822876,146.265518 
	C100.052078,146.277130 121.281281,146.288757 142.490417,146.767853 
	C139.317322,147.519119 136.164276,147.802887 132.544220,148.057159 
	C127.054184,148.048264 122.031174,148.068863 116.539337,148.069946 
	C103.708885,148.035263 91.347260,148.020126 78.985626,148.004990 
	C78.985626,148.004990 78.989517,147.920547 78.972610,147.617218 
	C78.911430,146.964417 78.867149,146.614975 78.822876,146.265518 
z"/>
<path fill="#24B14C" opacity="1.000000" stroke="none" 
	d="
M33.101631,141.426270 
	C34.065525,137.967636 34.970329,134.928955 36.203041,131.380798 
	C38.385834,130.898407 40.240723,130.925476 42.095608,130.952545 
	C42.385475,132.983582 42.675339,135.014618 42.959770,137.443420 
	C42.287960,140.599777 41.621590,143.358383 40.596565,146.542511 
	C39.851307,146.998413 39.464695,147.028809 38.762268,146.964462 
	C36.601799,146.890930 34.757145,146.912125 32.912491,146.933319 
	C32.955841,145.237610 32.999191,143.541901 33.101631,141.426270 
z"/>
<path fill="#0E9E4B" opacity="1.000000" stroke="none" 
	d="
M133.011230,148.086670 
	C136.164276,147.802887 139.317322,147.519119 142.781097,147.085114 
	C143.815475,146.979141 144.539124,147.023392 145.623199,147.427032 
	C145.986069,148.188446 145.988495,148.590500 145.973160,149.007507 
	C145.955383,149.022491 146.007904,149.009644 146.338287,149.101425 
	C148.464920,150.113953 150.261185,151.034683 151.727005,152.156067 
	C146.898026,153.068008 142.399506,153.779282 137.900970,154.490570 
	C135.545074,154.404510 133.189178,154.318466 130.475952,153.867889 
	C131.082825,151.697784 132.047028,149.892227 133.011230,148.086670 
z"/>
<path fill="#409F5A" opacity="1.000000" stroke="none" 
	d="
M35.982834,72.325775 
	C29.196787,72.735512 22.691105,73.105896 16.216194,72.807846 
	C14.763716,72.740990 13.418893,70.335381 12.024508,69.006454 
	C13.427628,67.678902 14.751801,65.320869 16.247849,65.206253 
	C22.021431,64.763924 27.857386,64.860802 33.655380,65.105492 
	C37.749950,65.278297 38.485542,67.525604 35.982834,72.325775 
M17.077364,70.901550 
	C21.843918,71.221497 26.611410,71.741066 31.376358,71.718719 
	C32.543716,71.713249 33.702759,69.935448 34.865623,68.972488 
	C33.818382,68.095016 32.815979,66.531525 31.716084,66.459625 
	C27.116299,66.158958 22.463923,66.025177 17.878679,66.406181 
	C15.553882,66.599358 12.888864,67.865753 17.077364,70.901550 
z"/>
<path fill="#519465" opacity="1.000000" stroke="none" 
	d="
M144.866455,27.062244 
	C144.866455,27.062246 144.912415,27.457037 144.932770,27.654692 
	C117.257561,27.893593 89.561996,27.934837 61.410431,27.696384 
	C60.954426,27.416685 60.970329,26.987240 60.970329,26.987240 
	C60.970329,26.987240 60.990215,26.984184 61.467369,26.998253 
	C89.585167,27.028965 117.225815,27.045605 144.866455,27.062244 
z"/>
<path fill="#20A248" opacity="1.000000" stroke="none" 
	d="
M158.912323,99.675003 
	C156.759521,102.145195 154.595306,104.218231 152.591064,106.435829 
	C151.426392,107.724487 150.518478,109.245209 148.911896,110.810623 
	C147.942368,110.936691 147.555969,110.913635 147.169571,110.890587 
	C147.169571,110.890587 147.045471,110.545364 146.963501,110.033951 
	C145.951080,108.345139 145.020660,107.167732 144.090225,105.990341 
	C148.519287,103.038773 152.948349,100.087204 157.726868,97.057251 
	C158.373566,97.765419 158.670792,98.551964 158.912323,99.675003 
z"/>
<path fill="#359B5B" opacity="1.000000" stroke="none" 
	d="
M173.959320,125.003960 
	C173.965286,117.992821 173.971268,110.981674 173.979614,103.063797 
	C173.913589,99.376678 174.103333,96.553123 173.649292,93.837204 
	C173.468491,92.755684 171.863602,91.912239 170.907013,90.960419 
	C172.006775,89.714554 173.106522,88.468697 174.860886,86.481270 
	C175.415222,88.499725 175.920456,89.490776 175.924210,90.483711 
	C175.963867,100.965797 175.937576,111.448280 175.876495,121.930336 
	C175.872009,122.701416 175.457275,123.470100 174.852081,124.610565 
	C174.470901,124.981224 174.115387,124.972145 174.076355,124.979973 
	C174.037308,124.987801 173.959320,125.003960 173.959320,125.003960 
z"/>
<path fill="#13A04D" opacity="1.000000" stroke="none" 
	d="
M166.989197,124.343178 
	C169.171188,124.328735 171.183380,124.640289 173.577438,124.977905 
	C173.959320,125.003960 174.037308,124.987801 173.998688,125.359344 
	C173.377975,128.531891 172.795883,131.332886 172.213791,134.133881 
	C172.213791,134.133881 172.339401,134.070602 172.115768,134.257050 
	C171.564209,134.630951 171.236282,134.818390 170.539246,134.913757 
	C168.124023,134.547882 166.077927,134.274094 164.019531,133.649429 
	C163.988892,132.830902 163.970566,132.363266 163.952240,131.895630 
	C164.907959,129.486816 165.863663,127.077988 166.989197,124.343178 
z"/>
<path fill="#1FAE4F" opacity="1.000000" stroke="none" 
	d="
M170.940689,90.970306 
	C171.863602,91.912239 173.468491,92.755684 173.649292,93.837204 
	C174.103333,96.553123 173.913589,99.376678 173.967499,102.597755 
	C172.192673,103.664566 170.432358,104.290688 168.318115,104.553223 
	C167.690094,101.734421 167.415970,99.279213 167.141830,96.823997 
	C167.141830,96.823997 167.041962,96.539993 167.022949,96.060799 
	C166.987808,95.363678 166.971664,95.145752 166.955521,94.927826 
	C166.955521,94.927826 166.975632,94.987160 167.212708,94.851089 
	C167.962402,94.116165 168.475052,93.517311 168.987686,92.918457 
	C168.987686,92.918457 168.994751,92.986916 169.228409,92.851425 
	C169.972458,92.114830 170.482864,91.513718 170.993271,90.912598 
	C170.993271,90.912605 170.974365,90.980202 170.940689,90.970306 
z"/>
<path fill="#1F9C58" opacity="1.000000" stroke="none" 
	d="
M123.981056,62.968372 
	C124.314842,65.699104 124.648628,68.429840 124.760544,71.822502 
	C122.027443,74.668282 119.516205,76.852127 116.748299,79.064636 
	C116.321220,79.117905 116.150810,79.142517 115.974663,78.748497 
	C115.969292,77.490883 115.969658,76.651901 115.970024,75.812912 
	C116.273132,75.067245 116.576248,74.321571 117.292160,73.110123 
	C118.793823,70.066612 119.882698,67.488892 120.971573,64.911163 
	C120.971573,64.911163 120.984680,64.994957 121.206696,64.841225 
	C122.279495,64.114449 123.130280,63.541412 123.981056,62.968372 
z"/>
<path fill="#2C945B" opacity="1.000000" stroke="none" 
	d="
M153.007172,87.031067 
	C149.868744,88.974892 146.730316,90.918724 142.991730,92.845673 
	C141.937134,92.496330 141.482697,92.163857 141.029144,91.540939 
	C141.033966,90.864319 141.037888,90.478149 141.394806,90.024223 
	C142.519730,89.692451 143.341171,89.523140 144.055847,89.149605 
	C150.421997,85.822159 150.983765,84.188538 148.313293,77.634346 
	C147.332901,75.228172 146.554230,72.739807 145.787842,70.192688 
	C145.892136,70.096436 146.100708,69.903915 146.100708,69.903915 
	C148.403625,74.986259 150.706543,80.068604 153.020874,85.815796 
	C153.023911,86.664124 153.015549,86.847595 153.007172,87.031067 
z"/>
<path fill="#17A248" opacity="1.000000" stroke="none" 
	d="
M168.085876,56.001144 
	C170.465820,54.806877 172.845779,53.612606 175.496414,52.240257 
	C176.054840,53.256260 176.342575,54.450333 176.201813,56.190994 
	C175.524185,59.515709 175.275055,62.293842 175.025909,65.071976 
	C175.025925,65.071976 175.013489,65.013603 174.698578,65.001305 
	C173.925308,64.978775 173.466980,64.968536 172.775436,64.730553 
	C171.055359,63.658302 169.568481,62.813801 168.065247,61.544121 
	C168.061218,59.413006 168.073547,57.707077 168.085876,56.001144 
z"/>
<path fill="#1DA64C" opacity="1.000000" stroke="none" 
	d="
M162.994888,29.001081 
	C161.125778,30.116703 159.256668,31.232327 157.204910,32.609211 
	C154.880905,31.636602 152.739548,30.402735 150.290039,29.010254 
	C152.252045,27.388145 154.522217,25.924650 156.922165,24.169704 
	C158.944290,25.022827 160.836655,26.167398 162.869476,27.883856 
	C163.004913,28.637522 162.999908,28.819304 162.994888,29.001081 
z"/>
<path fill="#0E944A" opacity="1.000000" stroke="none" 
	d="
M145.990936,148.992538 
	C145.988495,148.590500 145.986069,148.188446 145.981476,147.484879 
	C147.418655,146.457672 148.858002,145.732010 150.976685,144.914215 
	C152.744339,144.552460 153.832642,144.282852 155.112701,144.282501 
	C156.558411,146.370239 157.812378,148.188705 159.066345,150.007172 
	C159.066345,150.007172 159.053268,150.010925 158.697678,150.052032 
	C156.247208,150.713882 154.152328,151.334656 152.057449,151.955414 
	C150.261185,151.034683 148.464920,150.113953 146.334320,149.096741 
	C146.000000,149.000290 145.990936,148.992538 145.990936,148.992538 
z"/>
<path fill="#2E8F5A" opacity="1.000000" stroke="none" 
	d="
M78.395432,146.205551 
	C78.867149,146.614975 78.911430,146.964417 78.972382,147.574951 
	C75.207687,147.438553 71.241173,147.626389 67.689407,146.502975 
	C62.678734,144.918091 58.331818,145.315826 53.864067,147.926178 
	C52.054806,148.983261 49.809902,149.294724 47.373856,149.773590 
	C46.984474,149.601685 46.978504,149.195984 46.978504,149.195984 
	C47.899307,148.841385 48.913376,148.631851 49.726189,148.109283 
	C56.279213,143.896271 62.966526,142.133224 70.564255,145.639420 
	C72.663063,146.607971 75.480354,146.019592 78.395432,146.205551 
z"/>
<path fill="#14A054" opacity="1.000000" stroke="none" 
	d="
M159.257904,149.967285 
	C157.812378,148.188705 156.558411,146.370239 155.132660,143.937134 
	C154.967499,142.861862 154.974136,142.401245 154.980774,141.940613 
	C154.980774,141.940613 154.996750,141.997025 155.307938,141.936737 
	C156.742142,140.889526 157.865158,139.902634 158.988174,138.915741 
	C158.988174,138.915741 158.983536,138.981537 159.291412,138.975189 
	C160.052338,138.956192 160.505402,138.943542 161.163696,139.195099 
	C162.267731,140.974594 163.166534,142.489883 163.936249,144.301880 
	C163.546570,145.417725 163.285965,146.236893 163.025360,147.056046 
	C163.025360,147.056046 162.995270,147.005264 162.823990,147.147980 
	C162.397873,147.505157 162.180359,147.752426 162.000153,148.032501 
	C162.000153,148.032501 161.992920,147.985321 161.743088,148.098785 
	C160.931549,148.731796 160.369843,149.251358 159.808136,149.770935 
	C159.808136,149.770935 159.449448,149.927399 159.257904,149.967285 
z"/>
<path fill="#3E9A5B" opacity="1.000000" stroke="none" 
	d="
M29.183146,100.404114 
	C31.011089,98.959343 33.080704,97.828018 35.150314,96.696701 
	C32.889217,95.790741 30.680801,94.316620 28.355684,94.101021 
	C23.965315,93.693909 19.507812,94.010773 14.620294,94.038300 
	C21.024664,91.470718 28.054874,91.472427 35.015198,93.264977 
	C36.241840,93.580879 37.716438,96.024742 37.637146,97.403099 
	C37.565796,98.643517 35.707951,100.250542 34.288712,100.810738 
	C32.896572,101.360245 31.064060,100.794090 29.183146,100.404114 
z"/>
<path fill="#202935" opacity="1.000000" stroke="none" 
	d="
M66.002487,79.572983 
	C64.876556,78.645477 63.209721,77.523384 62.622269,75.988251 
	C60.594036,70.688042 58.942184,65.243805 57.082150,59.506340 
	C58.719677,61.575104 60.902355,63.791695 62.012856,66.455292 
	C63.715103,70.538231 64.679092,74.928955 66.002487,79.572983 
z"/>
<path fill="#36945F" opacity="1.000000" stroke="none" 
	d="
M124.183952,62.751587 
	C123.130280,63.541412 122.279495,64.114449 121.164795,64.847763 
	C121.465324,60.632404 123.905777,58.639938 128.344070,58.972992 
	C130.322662,59.121468 132.374710,59.289898 134.301498,58.941280 
	C139.875290,57.932796 143.254272,60.200813 144.868439,65.827377 
	C136.636444,59.265148 131.901123,58.412136 124.183952,62.751587 
z"/>
<path fill="#3AA25A" opacity="1.000000" stroke="none" 
	d="
M163.385254,91.059288 
	C168.500290,85.494804 173.969650,79.864143 179.766907,74.126907 
	C174.643066,79.677925 169.191330,85.335518 163.385254,91.059288 
z"/>
<path fill="#36A85D" opacity="1.000000" stroke="none" 
	d="
M197.004517,57.986656 
	C197.001221,58.447926 196.997925,58.909191 196.986176,59.716396 
	C190.909851,60.694221 190.388809,60.160095 191.694046,54.531879 
	C190.253845,53.921104 188.796570,53.303085 187.134735,52.151527 
	C186.930191,51.617992 186.929840,51.133858 186.929840,51.133858 
	C189.872513,52.108768 194.074509,49.781628 195.827744,55.051323 
	C196.364700,56.434307 196.684616,57.210480 197.004517,57.986656 
M194.527084,57.489288 
	C194.527084,57.489288 194.483902,57.503914 194.527084,57.489288 
z"/>
<path fill="#46A860" opacity="1.000000" stroke="none" 
	d="
M31.069267,44.153339 
	C30.841928,46.589645 30.338928,49.042126 30.480587,51.456787 
	C30.581213,53.172050 31.551298,54.836311 32.133320,56.523335 
	C33.566177,55.531418 35.017509,54.564556 36.419643,53.530960 
	C36.796932,53.252831 37.024666,52.771820 37.577801,52.160675 
	C37.722713,54.866192 39.045971,58.521389 34.124287,58.942841 
	C28.675200,59.409451 27.505646,58.009632 28.700903,52.531506 
	C29.356239,49.527966 29.823404,46.483368 30.694757,43.500027 
	C31.032488,43.746292 31.050879,43.949814 31.069267,44.153339 
z"/>
<path fill="#19A44C" opacity="1.000000" stroke="none" 
	d="
M32.944935,146.950577 
	C34.757145,146.912125 36.601799,146.890930 38.731705,147.340240 
	C38.688633,149.537720 38.360321,151.264709 38.032005,152.991684 
	C35.957832,152.985245 33.883659,152.978821 31.365295,152.966339 
	C31.283735,151.530807 31.646364,150.101318 32.231247,148.131866 
	C32.627781,147.352676 32.813789,147.122955 33.011524,146.902740 
	C33.011524,146.902740 32.977383,146.967834 32.944935,146.950577 
z"/>
<path fill="#1E2633" opacity="1.000000" stroke="none" 
	d="
M62.191559,117.403336 
	C62.687538,116.952049 63.502522,116.509605 64.189644,116.658234 
	C68.595764,117.611336 71.904877,116.382957 74.067123,112.261940 
	C74.488754,111.458344 75.484726,110.956085 76.508385,110.178802 
	C74.125031,119.467293 70.661400,121.312065 62.191559,117.403336 
z"/>
<path fill="#2E8F5A" opacity="1.000000" stroke="none" 
	d="
M151.727005,152.156067 
	C154.152328,151.334656 156.247208,150.713882 158.712128,150.054535 
	C153.283600,155.190063 146.291061,156.317352 138.415649,155.907623 
	C137.957367,155.532181 137.945496,155.229782 137.915070,154.709076 
	C142.399506,153.779282 146.898026,153.068008 151.727005,152.156067 
z"/>
<path fill="#3D9E5D" opacity="1.000000" stroke="none" 
	d="
M35.913139,83.859558 
	C35.948807,84.328445 35.984470,84.797340 36.052216,85.616714 
	C34.359402,86.304054 32.638382,86.906853 30.908943,86.932068 
	C23.078526,87.046219 15.244622,87.069656 7.414656,86.950127 
	C5.704373,86.924019 4.005083,86.177773 2.088034,85.419693 
	C2.316899,85.049126 2.758460,85.022049 3.938000,85.124542 
	C12.455995,85.461662 20.236012,85.669205 28.412888,85.893417 
	C31.177546,85.226585 33.545341,84.543076 35.913139,83.859558 
z"/>
<path fill="#2F805A" opacity="1.000000" stroke="none" 
	d="
M115.690918,76.043472 
	C115.969658,76.651901 115.969292,77.490883 115.811066,79.049377 
	C113.413437,85.140724 111.173668,90.512550 108.816772,95.835861 
	C108.473076,95.694229 108.266052,95.569176 108.078568,95.412193 
	C107.868767,94.940308 107.658966,94.468422 107.296173,93.641098 
	C109.020744,89.691795 110.953468,86.125305 112.754097,82.493309 
	C113.753891,80.476677 114.533165,78.350723 115.690918,76.043472 
z"/>
<path fill="#3E9A5B" opacity="1.000000" stroke="none" 
	d="
M112.758636,124.053963 
	C115.845032,123.567307 118.625717,123.304848 121.793732,122.995422 
	C118.879219,125.494713 115.577362,128.040970 112.275505,130.587219 
	C111.841286,130.229507 111.407074,129.871780 110.972855,129.514069 
	C111.466217,127.768768 111.959572,126.023468 112.758636,124.053963 
z"/>
<path fill="#202935" opacity="1.000000" stroke="none" 
	d="
M105.106995,87.597267 
	C102.772545,82.188255 100.323189,76.419144 97.936157,70.315353 
	C100.329689,75.732841 102.660881,81.485001 105.106995,87.597267 
z"/>
<path fill="#2E8D5C" opacity="1.000000" stroke="none" 
	d="
M29.663494,157.180527 
	C29.614109,164.950577 29.614109,164.950577 37.921703,163.908401 
	C36.149834,165.125122 34.134449,166.547226 31.900911,167.393723 
	C30.730253,167.837387 28.653906,167.770325 27.941656,167.023285 
	C27.209621,166.255493 27.376499,164.329315 27.625805,162.999237 
	C27.982420,161.096649 28.771461,159.275116 29.663494,157.180527 
z"/>
<path fill="#2E8D5C" opacity="1.000000" stroke="none" 
	d="
M49.194641,158.876740 
	C53.073257,153.917526 60.066841,151.476898 64.759239,153.609802 
	C59.844723,155.553619 54.711479,157.235153 49.194641,158.876740 
z"/>
<path fill="#3EA25D" opacity="1.000000" stroke="none" 
	d="
M143.753723,106.105225 
	C145.020660,107.167732 145.951080,108.345139 146.960571,109.850555 
	C144.601425,107.355942 142.416962,108.163116 139.995941,110.384323 
	C138.097122,112.126434 135.828598,113.465569 133.366302,115.040909 
	C136.477951,112.138771 139.947586,109.179443 143.753723,106.105225 
z"/>
<path fill="#1FAE4F" opacity="1.000000" stroke="none" 
	d="
M168.081604,61.969299 
	C169.568481,62.813801 171.055359,63.658302 172.764282,65.076347 
	C173.000473,66.108368 173.014603,66.566841 173.028717,67.025322 
	C173.028717,67.025322 172.995193,67.008080 172.809677,67.153107 
	C172.369415,67.517937 172.158325,67.773735 171.990860,68.065552 
	C171.913239,68.362015 171.748383,68.597374 170.940598,68.727249 
	C169.617142,66.445015 168.849380,64.207153 168.081604,61.969299 
z"/>
<path fill="#1E2633" opacity="1.000000" stroke="none" 
	d="
M94.951584,63.625473 
	C91.306808,60.307522 86.762466,60.104778 81.561180,60.993839 
	C86.143761,57.275597 92.282310,58.294106 94.951584,63.625473 
z"/>
<path fill="#202935" opacity="1.000000" stroke="none" 
	d="
M77.308472,108.821579 
	C75.513519,105.889000 73.837234,102.665794 79.723953,101.924576 
	C79.181030,104.188934 78.365891,106.380363 77.308472,108.821579 
z"/>
<path fill="#46A860" opacity="1.000000" stroke="none" 
	d="
M165.812759,115.046371 
	C166.396957,116.018425 166.703491,117.250008 166.954651,118.764206 
	C162.570801,119.016388 158.242355,118.985962 153.458939,118.669662 
	C153.003983,118.383797 153.012756,117.949623 153.012756,117.949631 
	C157.186874,117.068390 161.360992,116.187149 165.812759,115.046371 
z"/>
<path fill="#2FA15B" opacity="1.000000" stroke="none" 
	d="
M38.327621,153.120178 
	C38.360321,151.264709 38.688633,149.537720 39.047516,147.434967 
	C39.464695,147.028809 39.851307,146.998413 40.528885,146.946930 
	C41.668640,148.291702 42.517429,149.657562 43.782249,151.075333 
	C42.339931,151.834381 40.481586,152.541534 38.327621,153.120178 
z"/>
<path fill="#288758" opacity="1.000000" stroke="none" 
	d="
M99.208321,117.416954 
	C99.723076,117.569534 100.165764,118.098801 100.997391,119.097275 
	C103.540405,120.313942 105.694466,121.061417 107.899124,121.870392 
	C107.949722,121.931900 108.051086,122.054749 108.051086,122.054749 
	C103.074577,125.994179 100.911850,124.960434 99.208321,117.416954 
z"/>
<path fill="#359B5B" opacity="1.000000" stroke="none" 
	d="
M167.076645,97.265762 
	C167.415970,99.279213 167.690094,101.734421 167.968475,104.616989 
	C167.675247,106.791504 167.377762,108.538658 167.027557,110.666641 
	C166.800323,111.033302 166.625793,111.019127 166.189941,110.980309 
	C166.289536,106.539612 166.650497,102.123573 167.076645,97.265762 
z"/>
<path fill="#359B5B" opacity="1.000000" stroke="none" 
	d="
M168.065247,61.544117 
	C168.849380,64.207153 169.617142,66.445015 170.732208,68.795181 
	C170.057251,69.604271 169.034988,70.301056 167.048691,71.654945 
	C167.048691,65.488548 167.048691,60.225922 167.110016,54.502716 
	C167.412170,54.525707 167.653000,55.009281 167.989853,55.747002 
	C168.073547,57.707077 168.061218,59.413006 168.065247,61.544117 
z"/>
<path fill="#44A264" opacity="1.000000" stroke="none" 
	d="
M208.262436,45.984238 
	C207.503769,43.277275 206.281067,41.706642 202.959534,43.084721 
	C201.606308,43.646156 200.043228,43.701752 198.163696,44.012890 
	C201.221588,42.760563 204.691437,41.482845 209.222748,39.814251 
	C208.887985,42.909012 208.736176,44.312443 208.262436,45.984238 
z"/>
<path fill="#288758" opacity="1.000000" stroke="none" 
	d="
M114.059166,120.985992 
	C114.059166,120.985992 113.646500,121.046089 113.438690,121.064766 
	C111.728554,121.368729 110.226227,121.654015 108.387497,121.997025 
	C108.051086,122.054749 107.949722,121.931900 108.048279,121.556580 
	C110.409683,120.147171 112.672531,119.113083 114.832108,118.363571 
	C114.505608,119.427429 114.282387,120.206711 114.059166,120.985992 
z"/>
<path fill="#2FA15B" opacity="1.000000" stroke="none" 
	d="
M175.141785,49.660667 
	C174.045624,46.585415 173.023743,43.185543 172.009399,39.368179 
	C173.083328,42.412476 174.149689,45.874260 175.141785,49.660667 
z"/>
<path fill="#3D9E5D" opacity="1.000000" stroke="none" 
	d="
M186.319794,66.913002 
	C185.179596,66.438721 184.335159,65.829391 183.170258,65.147652 
	C184.870743,64.015068 186.891663,62.954891 188.912582,61.894714 
	C189.530792,62.746105 190.149002,63.597492 190.767212,64.448883 
	C189.383316,65.225235 187.999435,66.001595 186.319794,66.913002 
z"/>
<path fill="#3EA25D" opacity="1.000000" stroke="none" 
	d="
M152.739594,117.754120 
	C153.012756,117.949623 153.003983,118.383797 152.998718,118.600861 
	C147.302292,119.500755 149.304108,113.842522 147.130630,111.274269 
	C147.555969,110.913635 147.942368,110.936691 148.616577,110.979218 
	C150.091751,113.185341 151.279099,115.371979 152.739594,117.754120 
z"/>
<path fill="#36A85D" opacity="1.000000" stroke="none" 
	d="
M196.982849,60.358162 
	C198.503830,60.072769 200.072098,60.133717 201.849243,60.033340 
	C201.810547,61.269688 201.562988,62.667362 201.315430,64.065033 
	C200.814377,64.118271 200.313339,64.171516 199.812286,64.224754 
	C198.884903,63.051338 197.957520,61.877922 196.982849,60.358162 
z"/>
<path fill="#2FA15B" opacity="1.000000" stroke="none" 
	d="
M172.014923,38.646164 
	C170.723907,37.216869 169.398621,35.437565 168.053284,33.285919 
	C169.349030,34.707771 170.664841,36.501965 172.014923,38.646164 
z"/>
<path fill="#49B462" opacity="1.000000" stroke="none" 
	d="
M47.319984,34.915302 
	C47.127884,31.654034 49.096951,30.211195 52.670929,30.035469 
	C51.245224,31.604761 49.433655,33.190514 47.319984,34.915302 
z"/>
<path fill="#2E8F5A" opacity="1.000000" stroke="none" 
	d="
M172.497620,133.927551 
	C172.795883,131.332886 173.377975,128.531891 174.037735,125.351517 
	C174.115387,124.972145 174.470901,124.981224 174.648682,124.984863 
	C174.144775,127.899406 173.463104,130.810303 172.497620,133.927551 
z"/>
<path fill="#36945F" opacity="1.000000" stroke="none" 
	d="
M120.666054,65.092529 
	C119.882698,67.488892 118.793823,70.066612 117.424774,72.827118 
	C118.216568,70.431236 119.288551,67.852570 120.666054,65.092529 
z"/>
<path fill="#49B462" opacity="1.000000" stroke="none" 
	d="
M60.579750,26.998096 
	C60.970329,26.987240 60.954426,27.416685 60.941181,27.631214 
	C58.538269,28.553381 56.148598,29.261021 53.375793,30.017124 
	C55.391491,29.046711 57.790333,28.027834 60.579750,26.998096 
z"/>
<path fill="#4FAF62" opacity="1.000000" stroke="none" 
	d="
M49.608051,21.955814 
	C49.968330,21.904655 49.992012,22.384190 50.002979,22.622747 
	C47.902878,23.886929 45.791813,24.912552 43.320084,25.961798 
	C45.055538,24.659269 47.151653,23.333120 49.608051,21.955814 
z"/>
<path fill="#2FA15B" opacity="1.000000" stroke="none" 
	d="
M168.023529,32.634491 
	C166.785385,31.841751 165.477188,30.710249 164.102936,29.227924 
	C165.342438,30.016645 166.647949,31.156189 168.023529,32.634491 
z"/>
<path fill="#3EA25D" opacity="1.000000" stroke="none" 
	d="
M122.903702,121.927383 
	C124.716736,120.647926 126.529770,119.368462 128.704544,118.058258 
	C127.595604,119.275642 126.124924,120.523788 124.064880,121.873550 
	C123.284920,121.959251 123.094315,121.943321 122.903702,121.927383 
z"/>
<path fill="#44A264" opacity="1.000000" stroke="none" 
	d="
M186.891678,50.885246 
	C186.929840,51.133858 186.930191,51.617992 186.930542,51.859779 
	C186.003586,51.364044 185.076279,50.626518 184.148956,49.888992 
	C185.574844,48.960800 187.000732,48.032600 188.804169,47.145638 
	C188.405640,48.336796 187.629578,49.486717 186.891678,50.885246 
z"/>
<path fill="#359B5B" opacity="1.000000" stroke="none" 
	d="
M175.342270,64.899902 
	C175.275055,62.293842 175.524185,59.515709 175.936096,56.371521 
	C175.952133,58.912922 175.805374,61.820374 175.342270,64.899902 
z"/>
<path fill="#409F5A" opacity="1.000000" stroke="none" 
	d="
M172.681900,73.067932 
	C171.222672,74.258034 169.449203,75.589615 167.313354,76.944458 
	C168.756531,75.714958 170.562103,74.462189 172.681900,73.067932 
z"/>
<path fill="#2E8F5A" opacity="1.000000" stroke="none" 
	d="
M171.051437,137.037308 
	C170.073471,138.772308 169.095505,140.507324 167.695648,142.276672 
	C167.161575,142.187759 167.049393,142.064468 167.041962,141.620605 
	C168.394028,139.840424 169.641296,138.380844 170.929291,136.950287 
	C170.969986,136.979309 171.051437,137.037308 171.051437,137.037308 
z"/>
<path fill="#44A264" opacity="1.000000" stroke="none" 
	d="
M196.914642,44.169960 
	C195.066513,45.126469 192.829819,46.090286 190.184937,47.056942 
	C192.026535,46.098946 194.276291,45.138107 196.914642,44.169960 
z"/>
<path fill="#4FAF62" opacity="1.000000" stroke="none" 
	d="
M31.310017,43.870583 
	C31.050879,43.949814 31.032488,43.746292 30.985630,43.237755 
	C31.448706,41.351006 31.940248,39.769276 32.735313,37.976883 
	C32.542809,39.706757 32.046787,41.647293 31.310017,43.870583 
z"/>
<path fill="#2C945B" opacity="1.000000" stroke="none" 
	d="
M154.640106,141.994568 
	C154.974136,142.401245 154.967499,142.861862 154.940918,143.667877 
	C153.832642,144.282852 152.744339,144.552460 151.321655,144.854034 
	C152.091324,143.940186 153.195374,142.994354 154.640106,141.994568 
z"/>
<path fill="#3EA25D" opacity="1.000000" stroke="none" 
	d="
M129.344757,118.030426 
	C130.142151,117.093224 131.272827,116.113159 132.745605,115.081299 
	C131.951157,116.015518 130.814590,117.001541 129.344757,118.030426 
z"/>
<path fill="#3AA25A" opacity="1.000000" stroke="none" 
	d="
M181.320160,72.925148 
	C181.830276,71.808983 182.638794,70.541817 183.757996,69.143143 
	C183.251984,70.265808 182.435272,71.519974 181.320160,72.925148 
z"/>
<path fill="#2C945B" opacity="1.000000" stroke="none" 
	d="
M160.958450,138.930878 
	C160.505402,138.943542 160.052338,138.956192 159.259277,138.967865 
	C159.742920,137.730209 160.566574,136.493561 161.712967,135.141693 
	C162.035690,135.026474 162.101883,135.082855 162.048813,135.416092 
	C161.649979,136.809845 161.304214,137.870377 160.958450,138.930878 
z"/>
<path fill="#409F5A" opacity="1.000000" stroke="none" 
	d="
M166.680450,77.076218 
	C165.862534,77.928772 164.743958,78.907608 163.284454,79.934807 
	C164.088943,79.056282 165.234375,78.129395 166.680450,77.076218 
z"/>
<path fill="#2C945B" opacity="1.000000" stroke="none" 
	d="
M158.692520,139.055603 
	C157.865158,139.902634 156.742142,140.889526 155.279297,141.930481 
	C156.091934,141.054825 157.244400,140.125153 158.692520,139.055603 
z"/>
<path fill="#2E8D5C" opacity="1.000000" stroke="none" 
	d="
M44.339722,161.040756 
	C45.166687,160.398331 46.341442,159.707260 47.881947,158.992554 
	C47.060966,159.643326 45.874241,160.317734 44.339722,161.040756 
z"/>
<path fill="#409F5A" opacity="1.000000" stroke="none" 
	d="
M175.743256,71.104843 
	C175.232605,71.722015 174.390213,72.296127 173.238510,72.928452 
	C173.756638,72.345024 174.584076,71.703400 175.743256,71.104843 
z"/>
<path fill="#2E8D5C" opacity="1.000000" stroke="none" 
	d="
M41.080154,162.830811 
	C41.636578,162.238480 42.541630,161.678177 43.768425,161.074066 
	C43.203041,161.641129 42.315914,162.251984 41.080154,162.830811 
z"/>
<path fill="#409F5A" opacity="1.000000" stroke="none" 
	d="
M161.677155,80.963806 
	C161.192429,81.560326 160.381927,82.208908 159.255707,82.921295 
	C159.743774,82.328682 160.547577,81.672279 161.677155,80.963806 
z"/>
<path fill="#3D9E5D" opacity="1.000000" stroke="none" 
	d="
M181.713898,65.972099 
	C181.202896,66.568512 180.365295,67.246010 179.197113,67.994873 
	C179.706787,67.395218 180.547058,66.724197 181.713898,65.972099 
z"/>
<path fill="#409F5A" opacity="1.000000" stroke="none" 
	d="
M153.246765,87.029053 
	C153.015549,86.847595 153.023911,86.664124 153.043793,86.205658 
	C153.827332,85.626015 154.599396,85.321365 155.684082,84.968964 
	C155.159927,85.623146 154.323135,86.325089 153.246765,87.029053 
z"/>
<path fill="#2E8F5A" opacity="1.000000" stroke="none" 
	d="
M163.307419,146.940826 
	C163.285965,146.236893 163.546570,145.417725 164.167572,144.297272 
	C164.527985,143.995956 164.992218,143.989532 165.162964,144.149597 
	C165.333694,144.309647 165.679672,144.624924 165.679672,144.624924 
	C164.982941,145.358490 164.286209,146.092056 163.307419,146.940826 
z"/>
<path fill="#2C945B" opacity="1.000000" stroke="none" 
	d="
M163.696075,132.072510 
	C163.970566,132.363266 163.988892,132.830902 163.790710,133.807465 
	C163.083435,134.571869 162.592651,134.827362 162.101883,135.082855 
	C162.101883,135.082855 162.035690,135.026474 162.002640,134.998230 
	C162.459702,134.063141 162.949814,133.156265 163.696075,132.072510 
z"/>
<path fill="#2E8F5A" opacity="1.000000" stroke="none" 
	d="
M167.439972,142.497833 
	C167.103912,143.214371 166.601624,143.744125 165.889496,144.449402 
	C165.679672,144.624924 165.333694,144.309647 165.312225,143.904266 
	C165.839569,142.979645 166.388382,142.460419 166.937195,141.941193 
	C167.049393,142.064468 167.161575,142.187759 167.439972,142.497833 
z"/>
<path fill="#2C945B" opacity="1.000000" stroke="none" 
	d="
M144.026337,70.015282 
	C144.258270,69.458649 144.490219,68.902016 144.862274,68.075958 
	C145.335632,68.300598 145.668869,68.794678 146.051392,69.596329 
	C146.100708,69.903915 145.892136,70.096436 145.516968,70.135941 
	C144.769989,70.122055 144.398163,70.068665 144.026337,70.015282 
z"/>
<path fill="#359B5B" opacity="1.000000" stroke="none" 
	d="
M168.650009,92.967468 
	C168.475052,93.517311 167.962402,94.116165 167.181381,94.852005 
	C167.379440,94.331490 167.845886,93.673988 168.650009,92.967468 
z"/>
<path fill="#359B5B" opacity="1.000000" stroke="none" 
	d="
M170.718048,91.037445 
	C170.482864,91.513718 169.972458,92.114830 169.194031,92.852997 
	C169.431595,92.380798 169.937210,91.771545 170.718048,91.037445 
z"/>
<path fill="#2E8F5A" opacity="1.000000" stroke="none" 
	d="
M160.112595,149.756836 
	C160.369843,149.251358 160.931549,148.731796 161.763489,148.111176 
	C161.494843,148.587662 160.955948,149.165207 160.112595,149.756836 
z"/>
<path fill="#2E8F5A" opacity="1.000000" stroke="none" 
	d="
M170.908356,135.005844 
	C171.236282,134.818390 171.564209,134.630951 172.147430,134.319855 
	C172.131042,135.020126 171.859360,135.844055 171.319550,136.852661 
	C171.051437,137.037308 170.969986,136.979309 170.933075,136.630905 
	C170.900223,135.856949 170.904297,135.431396 170.908356,135.005844 
z"/>
<path fill="#4FAF62" opacity="1.000000" stroke="none" 
	d="
M42.719666,26.068424 
	C42.488110,26.551027 41.977165,27.146875 41.192192,27.868650 
	C41.425537,27.390274 41.932907,26.785973 42.719666,26.068424 
z"/>
<path fill="#359B5B" opacity="1.000000" stroke="none" 
	d="
M173.298462,66.910370 
	C173.014603,66.566841 173.000473,66.108368 172.997498,65.304092 
	C173.466980,64.968536 173.925308,64.978775 174.727295,65.009399 
	C174.570007,65.618340 174.069107,66.206879 173.298462,66.910370 
z"/>
<path fill="#4FAF62" opacity="1.000000" stroke="none" 
	d="
M34.760738,34.878227 
	C34.582798,35.397411 34.134293,36.106262 33.431324,37.012646 
	C33.614632,36.496082 34.052402,35.781986 34.760738,34.878227 
z"/>
<path fill="#409F5A" opacity="1.000000" stroke="none" 
	d="
M157.716141,83.970306 
	C157.517838,84.229332 157.007309,84.525780 156.210648,84.902252 
	C156.417648,84.657433 156.910797,84.332581 157.716141,83.970306 
z"/>
<path fill="#3AA25A" opacity="1.000000" stroke="none" 
	d="
M162.313354,92.936691 
	C162.264114,92.534637 162.505859,91.996002 162.912231,91.211861 
	C162.919342,91.577606 162.761856,92.188858 162.313354,92.936691 
z"/>
<path fill="#2FA15B" opacity="1.000000" stroke="none" 
	d="
M45.775566,150.046661 
	C45.754223,150.173248 45.470970,150.400131 44.981895,150.803894 
	C45.021938,150.702850 45.267799,150.424896 45.775566,150.046661 
z"/>
<path fill="#2FA15B" opacity="1.000000" stroke="none" 
	d="
M163.268127,28.993523 
	C162.999908,28.819304 163.004913,28.637522 163.022476,28.182905 
	C163.320694,28.094557 163.606354,28.279043 163.989319,28.704937 
	C163.904861,28.959549 163.723099,28.972755 163.268127,28.993523 
z"/>
<path fill="#4FAF62" opacity="1.000000" stroke="none" 
	d="
M40.748604,28.019316 
	C40.763973,28.184422 40.508457,28.437946 40.037132,28.855919 
	C40.040119,28.716158 40.258915,28.411945 40.748604,28.019316 
z"/>
<path fill="#3E9A5B" opacity="1.000000" stroke="none" 
	d="
M13.727991,94.999718 
	C13.786068,95.140053 13.619802,95.358902 13.309151,95.725357 
	C13.094810,95.533630 13.207771,95.268723 13.727991,94.999718 
z"/>
<path fill="#2FA15B" opacity="1.000000" stroke="none" 
	d="
M46.733898,149.194565 
	C46.978504,149.195984 46.984474,149.601685 46.986706,149.804886 
	C46.813717,150.005280 46.638500,150.002472 46.200413,149.985779 
	C45.999573,149.625885 46.183487,149.366318 46.733898,149.194565 
z"/>
<path fill="#3AA25A" opacity="1.000000" stroke="none" 
	d="
M180.248260,73.990524 
	C180.220459,73.829544 180.451431,73.575005 180.880371,73.154037 
	C180.887894,73.290726 180.697449,73.593842 180.248260,73.990524 
z"/>
<path fill="#3AA25A" opacity="1.000000" stroke="none" 
	d="
M161.249603,93.831009 
	C161.212708,93.626694 161.445175,93.432167 161.882004,93.129562 
	C161.883835,93.278549 161.694702,93.551651 161.249603,93.831009 
z"/>
<path fill="#3AA25A" opacity="1.000000" stroke="none" 
	d="
M184.242340,68.968285 
	C184.219742,68.817322 184.446426,68.567772 184.864594,68.152138 
	C184.867935,68.280602 184.679764,68.575150 184.242340,68.968285 
z"/>
<path fill="#359B5B" opacity="1.000000" stroke="none" 
	d="
M166.727356,95.030396 
	C166.971664,95.145752 166.987808,95.363678 167.015686,95.910454 
	C166.851349,95.870529 166.675278,95.501747 166.727356,95.030396 
z"/>
<path fill="#2E8D5C" opacity="1.000000" stroke="none" 
	d="
M39.099754,163.811981 
	C39.108768,163.615997 39.418331,163.413284 39.976303,163.085983 
	C39.949913,163.242691 39.675110,163.523972 39.099754,163.811981 
z"/>
<path fill="#2E8F5A" opacity="1.000000" stroke="none" 
	d="
M162.250824,147.950394 
	C162.180359,147.752426 162.397873,147.505157 162.853394,147.145294 
	C162.869873,147.289352 162.685684,147.578812 162.250824,147.950394 
z"/>
<path fill="#49B462" opacity="1.000000" stroke="none" 
	d="
M46.329613,35.790699 
	C46.309109,35.623196 46.527374,35.445702 46.908638,35.132362 
	C47.014503,35.327950 46.846748,35.589348 46.329613,35.790699 
z"/>
<path fill="#24B14C" opacity="1.000000" stroke="none" 
	d="
M32.781059,146.995071 
	C32.813789,147.122955 32.627781,147.352676 32.315849,147.765015 
	C32.092575,147.562851 32.216709,147.279266 32.781059,146.995071 
z"/>
<path fill="#3D9E5D" opacity="1.000000" stroke="none" 
	d="
M185.238998,67.962555 
	C185.216415,67.810028 185.443069,67.557388 185.867310,67.143280 
	C185.872681,67.275360 185.680466,67.568893 185.238998,67.962555 
z"/>
<path fill="#4FAF62" opacity="1.000000" stroke="none" 
	d="
M38.760445,29.937103 
	C38.791634,30.094160 38.565086,30.376280 38.135834,30.838680 
	C38.122986,30.700029 38.312847,30.381100 38.760445,29.937103 
z"/>
<path fill="#4FAF62" opacity="1.000000" stroke="none" 
	d="
M37.755951,31.023008 
	C37.785137,31.185925 37.555801,31.439178 37.128090,31.855381 
	C37.118950,31.716667 37.308186,31.415007 37.755951,31.023008 
z"/>
<path fill="#4FAF62" opacity="1.000000" stroke="none" 
	d="
M36.759415,32.020081 
	C36.788155,32.182583 36.558453,32.435596 36.130310,32.851223 
	C36.121571,32.712753 36.311268,32.411671 36.759415,32.020081 
z"/>
<path fill="#1E2633" opacity="1.000000" stroke="none" 
	d="
M95.722481,64.710503 
	C95.639000,64.689613 95.450256,64.483727 95.127998,64.114090 
	C95.224770,64.116653 95.432343,64.308372 95.722481,64.710503 
z"/>
<path fill="#359B5B" opacity="1.000000" stroke="none" 
	d="
M172.238419,67.973343 
	C172.158325,67.773735 172.369415,67.517937 172.827682,67.153107 
	C172.849457,67.299095 172.667725,67.590111 172.238419,67.973343 
z"/>
<path fill="#4FAF62" opacity="1.000000" stroke="none" 
	d="
M35.720284,33.038246 
	C35.818832,33.231853 35.635353,33.539272 35.285545,34.062775 
	C35.225567,33.903255 35.331913,33.527660 35.720284,33.038246 
z"/>
<path fill="#409F5A" opacity="1.000000" stroke="none" 
	d="
M158.761932,83.038666 
	C158.784943,83.193047 158.558502,83.444923 158.131439,83.853340 
	C158.124695,83.718651 158.318588,83.427414 158.761932,83.038666 
z"/>
<path fill="#409F5A" opacity="1.000000" stroke="none" 
	d="
M162.754272,80.031158 
	C162.782562,80.194977 162.553909,80.448067 162.121185,80.856827 
	C162.110504,80.715141 162.303909,80.417786 162.754272,80.031158 
z"/>
<path fill="#3E9A5B" opacity="1.000000" stroke="none" 
	d="
M122.865677,122.144028 
	C123.094315,121.943321 123.284920,121.959251 123.761307,121.999733 
	C123.800110,122.273552 123.553131,122.522820 123.031616,122.783493 
	C122.757095,122.794914 122.827652,122.360680 122.865677,122.144028 
z"/>
<path fill="#28B04E" opacity="1.000000" stroke="none" 
	d="
M28.016029,85.876740 
	C20.236012,85.669205 12.455995,85.461662 4.269639,85.108810 
	C2.751846,80.731934 5.633371,80.119522 8.603890,80.080177 
	C16.158941,79.980125 23.716919,80.100937 31.454353,80.369072 
	C30.428665,82.362114 29.222347,84.119431 28.016029,85.876740 
z"/>
<path fill="#1FAB4C" opacity="1.000000" stroke="none" 
	d="
M28.412888,85.893417 
	C29.222347,84.119431 30.428665,82.362114 31.819468,80.341248 
	C33.236267,81.143089 34.468578,82.208496 35.807014,83.566727 
	C33.545341,84.543076 31.177546,85.226585 28.412888,85.893417 
z"/>
<path fill="#129050" opacity="1.000000" stroke="none" 
	d="
M108.933884,95.884377 
	C111.173668,90.512550 113.413437,85.140724 115.816811,79.468002 
	C116.150810,79.142517 116.321220,79.117905 116.889404,79.351562 
	C120.699463,84.213097 120.678253,84.195763 124.360809,79.690681 
	C126.281395,77.341103 128.230179,76.579109 129.964050,79.939468 
	C129.958466,79.965927 129.948364,80.019051 129.786591,80.180817 
	C129.411728,80.562035 129.204208,80.786613 128.880005,81.388214 
	C128.522690,83.874496 128.287613,85.988876 128.041229,88.062378 
	C128.029922,88.021500 128.111694,87.998947 127.833641,88.215904 
	C127.046692,89.977371 126.537796,91.521889 126.020409,93.034836 
	C126.011917,93.003281 126.077019,92.997406 125.800430,93.193924 
	C125.028351,94.618172 124.532852,95.845909 124.025314,97.041054 
	C124.013283,97.008469 124.079285,96.986824 123.825119,97.227997 
	C123.057411,98.996719 122.543861,100.524261 122.018433,102.026291 
	C122.006546,102.000778 122.060387,102.017204 121.735901,102.122147 
	C119.307602,103.822029 117.203796,105.416962 115.099991,107.011902 
	C111.583076,106.948845 107.071114,110.823349 105.006523,104.164688 
	C104.909775,103.666916 104.944199,103.498779 105.211403,102.881004 
	C105.611847,102.132927 105.779510,101.834488 105.947174,101.536049 
	C105.947174,101.536049 105.935379,101.219437 106.135162,100.818024 
	C106.535736,99.861366 106.736542,99.306114 106.937347,98.750862 
	C106.937340,98.750862 106.993042,98.356598 107.299133,98.014687 
	C108.048103,97.076645 108.490997,96.480507 108.933884,95.884377 
z"/>
<path fill="#1D8757" opacity="1.000000" stroke="none" 
	d="
M108.816772,95.835861 
	C108.490997,96.480507 108.048103,97.076645 107.373077,97.829842 
	C107.337654,97.328415 107.534363,96.669922 107.904823,95.711807 
	C108.266052,95.569176 108.473076,95.694229 108.816772,95.835861 
z"/>
<path fill="#1D8757" opacity="1.000000" stroke="none" 
	d="
M106.758072,98.992073 
	C106.736542,99.306114 106.535736,99.861366 106.186790,100.668266 
	C106.218697,100.357704 106.398743,99.795494 106.758072,98.992073 
z"/>
<path fill="#1D8757" opacity="1.000000" stroke="none" 
	d="
M105.764526,101.723618 
	C105.779510,101.834488 105.611847,102.132927 105.303696,102.640686 
	C105.302765,102.537056 105.442322,102.224113 105.764526,101.723618 
z"/>
<path fill="#000000" opacity="1.000000" stroke="none" 
	d="
M141.028259,91.831375 
	C141.482697,92.163857 141.937134,92.496330 142.649536,92.950188 
	C140.357132,94.799469 137.806778,96.527367 134.787323,98.493240 
	C130.225327,100.481323 126.132439,102.231438 122.018875,103.654251 
	C122.018936,102.890366 122.039658,102.453789 122.060387,102.017204 
	C122.060387,102.017204 122.006546,102.000778 122.338432,101.856468 
	C123.139969,100.137047 123.609627,98.561935 124.079285,96.986824 
	C124.079285,96.986824 124.013283,97.008469 124.301689,96.852371 
	C125.085732,95.463326 125.581375,94.230362 126.077019,92.997406 
	C126.077019,92.997406 126.011917,93.003281 126.315987,92.840805 
	C127.117264,91.118530 127.614479,89.558739 128.111694,87.998947 
	C128.111694,87.998947 128.029922,88.021500 128.326248,87.854858 
	C129.663528,85.112488 130.704483,82.536758 131.991760,79.800034 
	C133.514786,82.182228 134.541107,84.899429 136.148666,87.212692 
	C137.399826,89.013107 139.374908,90.310448 141.028259,91.831375 
z"/>
<path fill="#0F904B" opacity="1.000000" stroke="none" 
	d="
M114.935371,118.078995 
	C112.672531,119.113083 110.409683,120.147171 107.997688,121.495071 
	C105.694466,121.061417 103.540405,120.313942 101.171516,119.288513 
	C106.411034,116.414581 111.865372,113.818588 117.661560,111.123238 
	C117.374107,113.052315 116.744812,115.080742 115.774117,117.522430 
	C115.266937,117.983467 115.101158,118.031227 114.935371,118.078995 
z"/>
<path fill="#3EA25D" opacity="1.000000" stroke="none" 
	d="
M122.039536,103.981552 
	C126.132439,102.231438 130.225327,100.481323 134.623962,98.791260 
	C130.572495,101.209534 126.215294,103.567757 121.593079,105.723717 
	C121.565216,105.008148 121.802376,104.494843 122.039536,103.981552 
z"/>
<path fill="#288758" opacity="1.000000" stroke="none" 
	d="
M122.018875,103.654251 
	C121.802376,104.494843 121.565216,105.008148 121.219551,105.782349 
	C121.111046,106.043236 121.041138,106.068222 120.876015,106.198990 
	C120.541039,106.492897 120.376671,106.661392 120.217789,106.835236 
	C119.986717,107.109985 119.755661,107.384735 119.339195,107.852188 
	C117.964218,107.758949 116.774643,107.473007 115.342529,107.099480 
	C117.203796,105.416962 119.307602,103.822029 121.735901,102.122147 
	C122.039658,102.453789 122.018936,102.890366 122.018875,103.654251 
z"/>
<path fill="#3E9A5B" opacity="1.000000" stroke="none" 
	d="
M114.832108,118.363571 
	C115.101158,118.031227 115.266937,117.983467 115.681114,117.862122 
	C115.468277,118.723328 115.007034,119.658104 114.302483,120.789436 
	C114.282387,120.206711 114.505608,119.427429 114.832108,118.363571 
z"/>
<path fill="#0F904B" opacity="1.000000" stroke="none" 
	d="
M118.192345,110.768051 
	C118.246544,110.478439 118.476501,109.967865 118.863785,109.223961 
	C118.803444,109.509445 118.585770,110.028267 118.192345,110.768051 
z"/>
<path fill="#3EA25D" opacity="1.000000" stroke="none" 
	d="
M120.348976,106.717621 
	C120.376671,106.661392 120.541039,106.492897 120.840179,106.208664 
	C120.814217,106.265892 120.651123,106.436707 120.348976,106.717621 
z"/>
<path fill="#2BB54B" opacity="1.000000" stroke="none" 
	d="
M99.839493,20.354332 
	C107.377815,20.072720 114.726570,20.050941 122.544357,20.058477 
	C122.056061,21.802643 121.098732,23.517492 119.607887,25.587765 
	C111.392136,25.923679 103.709885,25.904173 96.027641,25.884666 
	C97.235062,24.127832 98.442490,22.370998 99.839493,20.354332 
z"/>
<path fill="#49B462" opacity="1.000000" stroke="none" 
	d="
M95.556778,25.906807 
	C103.709885,25.904173 111.392136,25.923679 119.543869,25.918850 
	C128.056854,26.169577 136.100357,26.444641 144.505157,26.890976 
	C117.225815,27.045605 89.585167,27.028965 61.477386,26.997383 
	C66.251907,26.646706 71.489342,26.165871 76.736328,26.013151 
	C82.848495,25.835245 88.969009,25.944374 95.556778,25.906807 
z"/>
<path fill="#1FAB4C" opacity="1.000000" stroke="none" 
	d="
M78.986496,148.441345 
	C91.347260,148.020126 103.708885,148.035263 116.350418,148.332001 
	C115.107285,150.699646 113.584259,152.785706 112.061234,154.871765 
	C101.374649,154.914703 90.688057,154.957657 79.542435,154.990524 
	C79.051392,152.946198 79.019386,150.911957 78.986496,148.441345 
z"/>
<path fill="#0F994B" opacity="1.000000" stroke="none" 
	d="
M143.700348,70.176842 
	C144.398163,70.068665 144.769989,70.122055 145.412674,70.232193 
	C146.554230,72.739807 147.332901,75.228172 148.313293,77.634346 
	C150.983765,84.188538 150.421997,85.822159 144.055847,89.149605 
	C143.341171,89.523140 142.519730,89.692451 141.134933,89.778534 
	C137.671432,84.404205 134.820801,79.207809 131.970169,74.011414 
	C135.771561,72.787079 139.572968,71.562737 143.700348,70.176842 
z"/>
<path fill="#199351" opacity="1.000000" stroke="none" 
	d="
M131.734985,74.009933 
	C134.820801,79.207809 137.671432,84.404205 140.781952,89.846283 
	C141.037888,90.478149 141.033966,90.864319 141.029144,91.540939 
	C139.374908,90.310448 137.399826,89.013107 136.148666,87.212692 
	C134.541107,84.899429 133.514786,82.182228 131.695862,79.795410 
	C130.758987,79.938858 130.364319,79.925934 129.969650,79.913010 
	C128.230179,76.579109 126.281395,77.341103 124.360809,79.690681 
	C120.678253,84.195763 120.699463,84.213097 117.146072,79.322906 
	C119.516205,76.852127 122.027443,74.668282 124.764709,72.242439 
	C126.424873,72.251183 127.859016,72.501915 129.804916,73.048668 
	C130.545349,73.573990 130.782928,73.793663 131.029404,74.003700 
	C131.029404,74.003700 131.499786,74.008461 131.734985,74.009933 
z"/>
<path fill="#0F994B" opacity="1.000000" stroke="none" 
	d="
M130.860107,73.829712 
	C130.782928,73.793663 130.545349,73.573990 130.147644,73.170303 
	C130.224136,73.207085 130.461533,73.427025 130.860107,73.829712 
z"/>
<path fill="#19AA4B" opacity="1.000000" stroke="none" 
	d="
M197.306839,57.841885 
	C196.684616,57.210480 196.364700,56.434307 195.987061,55.346905 
	C197.747116,54.760815 199.564911,54.485958 201.382706,54.211102 
	C201.559631,54.702705 201.736557,55.194305 201.913483,55.685905 
	C200.478699,56.356308 199.043930,57.026714 197.306839,57.841885 
z"/>
<path fill="#25AC47" opacity="1.000000" stroke="none" 
	d="
M41.939667,130.646301 
	C40.240723,130.925476 38.385834,130.898407 36.196545,130.967056 
	C34.295727,127.617050 32.729313,124.171318 31.372250,120.256393 
	C33.375690,119.872520 35.169777,119.957855 36.963867,120.043190 
	C38.570484,123.475479 40.177105,126.907768 41.939667,130.646301 
z"/>
<path fill="#28B04E" opacity="1.000000" stroke="none" 
	d="
M36.892197,119.648911 
	C35.169777,119.957855 33.375690,119.872520 31.272049,119.904930 
	C30.721399,117.756142 30.187012,115.467163 30.357986,113.232155 
	C30.448931,112.043289 31.761402,110.947884 32.522499,109.810287 
	C33.600101,110.852768 35.144142,111.710640 35.646820,112.980675 
	C36.415432,114.922630 36.465458,117.148994 36.892197,119.648911 
z"/>
<path fill="#19A44C" opacity="1.000000" stroke="none" 
	d="
M112.521805,154.895508 
	C113.584259,152.785706 115.107285,150.699646 116.819237,148.351532 
	C122.031174,148.068863 127.054184,148.048264 132.544220,148.057159 
	C132.047028,149.892227 131.082825,151.697784 130.031799,153.855194 
	C124.290764,154.444443 118.636574,154.681839 112.521805,154.895508 
z"/>
<path fill="#0E944A" opacity="1.000000" stroke="none" 
	d="
M146.003952,149.004974 
	C146.007904,149.009644 145.955383,149.022491 145.973160,149.007507 
	C145.990936,148.992538 146.000000,149.000290 146.003952,149.004974 
z"/>
<path fill="#28B04E" opacity="1.000000" stroke="none" 
	d="
M16.717426,70.799370 
	C12.888864,67.865753 15.553882,66.599358 17.878679,66.406181 
	C22.463923,66.025177 27.116299,66.158958 31.716084,66.459625 
	C32.815979,66.531525 33.818382,68.095016 34.865623,68.972488 
	C33.702759,69.935448 32.543716,71.713249 31.376358,71.718719 
	C26.611410,71.741066 21.843918,71.221497 16.717426,70.799370 
z"/>
<path fill="#0F994B" opacity="1.000000" stroke="none" 
	d="
M170.539246,134.913757 
	C170.904297,135.431396 170.900223,135.856949 170.892365,136.601883 
	C169.641296,138.380844 168.394028,139.840424 167.041962,141.620605 
	C166.388382,142.460419 165.839569,142.979645 165.141495,143.744202 
	C164.992218,143.989532 164.527985,143.995956 164.296661,144.000565 
	C163.166534,142.489883 162.267731,140.974594 161.163696,139.195099 
	C161.304214,137.870377 161.649979,136.809845 162.048813,135.416092 
	C162.592651,134.827362 163.083435,134.571869 163.803024,134.158356 
	C166.077927,134.274094 168.124023,134.547882 170.539246,134.913757 
z"/>
<path fill="#19AA4B" opacity="1.000000" stroke="none" 
	d="
M194.505493,57.496601 
	C194.483902,57.503914 194.527084,57.489288 194.505493,57.496601 
z"/>
<path fill="#288758" opacity="1.000000" stroke="none" 
	d="
M129.964050,79.939468 
	C130.364319,79.925934 130.758987,79.938858 131.449554,79.956406 
	C130.704483,82.536758 129.663528,85.112488 128.337555,87.895744 
	C128.287613,85.988876 128.522690,83.874496 129.042862,81.226227 
	C129.540359,80.473083 129.747177,80.248650 129.948364,80.019051 
	C129.948364,80.019051 129.958466,79.965927 129.964050,79.939468 
z"/>
<path fill="#288758" opacity="1.000000" stroke="none" 
	d="
M123.825119,97.227997 
	C123.609627,98.561935 123.139969,100.137047 122.350319,101.881981 
	C122.543861,100.524261 123.057411,98.996719 123.825119,97.227997 
z"/>
<path fill="#288758" opacity="1.000000" stroke="none" 
	d="
M127.833633,88.215904 
	C127.614479,89.558739 127.117264,91.118530 126.324478,92.872360 
	C126.537796,91.521889 127.046692,89.977371 127.833633,88.215904 
z"/>
<path fill="#288758" opacity="1.000000" stroke="none" 
	d="
M125.800430,93.193924 
	C125.581375,94.230362 125.085732,95.463326 124.313721,96.884964 
	C124.532852,95.845909 125.028351,94.618172 125.800430,93.193924 
z"/>
<path fill="#199351" opacity="1.000000" stroke="none" 
	d="
M129.786591,80.180817 
	C129.747177,80.248650 129.540359,80.473083 129.165085,80.854324 
	C129.204208,80.786613 129.411728,80.562035 129.786591,80.180817 
z"/>
</svg>